<svg width="691" height="168" viewBox="0 0 691 168" fill="none" xmlns="http://www.w3.org/2000/svg">
<path d="M465.219 89.2085C453.379 -4.63565 391.261 -4.64452 326.174 3.03562C261.088 10.7158 233.499 36.3869 226.55 69.2546C219.602 102.122 247.361 160.543 303.034 167.097C358.706 173.652 387.074 142.299 409.985 143.914C432.896 145.529 469.044 119.5 465.219 89.2085Z" fill="#FFEDEE"/>
<path d="M144.866 30.8L142.626 42H141.49L143.266 33.12L137.474 40.576H136.914L133.922 32.976L132.13 42H130.993L133.234 30.8H134.194L137.426 39.12L143.826 30.8H144.866ZM155.984 33.584H157.12L155.44 42H154.304L155.984 33.584ZM150.656 36.544C152.544 36.544 153.488 37.296 153.488 38.8C153.488 39.44 153.322 40.0053 152.992 40.496C152.672 40.976 152.213 41.3493 151.616 41.616C151.029 41.872 150.346 42 149.568 42H146.112L147.792 33.616H148.928L148.352 36.544H150.656ZM149.568 41.136C150.4 41.136 151.072 40.9333 151.584 40.528C152.096 40.112 152.352 39.568 152.352 38.896C152.352 38.3947 152.181 38.0213 151.84 37.776C151.509 37.52 151.002 37.392 150.32 37.392H148.176L147.44 41.136H149.568ZM167.582 37.648C168.115 37.7867 168.521 38.0107 168.798 38.32C169.075 38.6187 169.214 38.992 169.214 39.44C169.214 39.9413 169.038 40.3947 168.686 40.8C168.345 41.2053 167.865 41.5253 167.246 41.76C166.638 41.984 165.955 42.096 165.198 42.096C163.886 42.096 162.814 41.7387 161.982 41.024L162.462 40.224C162.771 40.512 163.166 40.7307 163.646 40.88C164.126 41.0293 164.649 41.104 165.214 41.104C165.758 41.104 166.249 41.0293 166.686 40.88C167.123 40.7307 167.465 40.5227 167.71 40.256C167.955 39.9893 168.078 39.6907 168.078 39.36C168.078 38.9547 167.897 38.64 167.534 38.416C167.182 38.192 166.691 38.08 166.062 38.08H164.67L164.798 37.216H165.998C166.723 37.216 167.305 37.0827 167.742 36.816C168.19 36.5493 168.414 36.1973 168.414 35.76C168.414 35.3547 168.238 35.04 167.886 34.816C167.534 34.592 167.049 34.48 166.43 34.48C165.63 34.48 164.739 34.7093 163.758 35.168L163.438 34.224C164.462 33.7333 165.491 33.488 166.526 33.488C167.443 33.488 168.179 33.68 168.734 34.064C169.299 34.4373 169.582 34.944 169.582 35.584C169.582 36.0747 169.406 36.5013 169.054 36.864C168.702 37.2267 168.211 37.488 167.582 37.648ZM172.932 33.584H174.068L173.332 37.312H178.612L179.364 33.584H180.5L178.82 42H177.684L178.42 38.288H173.14L172.388 42H171.252L172.932 33.584ZM191.522 33.584L189.842 42H188.754L189.026 40.672C188.62 41.12 188.14 41.4667 187.586 41.712C187.031 41.9573 186.418 42.08 185.746 42.08C185.031 42.08 184.396 41.936 183.842 41.648C183.287 41.36 182.855 40.9493 182.546 40.416C182.236 39.872 182.082 39.2373 182.082 38.512C182.082 37.5627 182.284 36.7093 182.69 35.952C183.106 35.1947 183.676 34.6027 184.402 34.176C185.127 33.7387 185.938 33.52 186.834 33.52C187.634 33.52 188.306 33.68 188.85 34C189.394 34.3093 189.788 34.7573 190.034 35.344L190.386 33.584H191.522ZM185.986 41.072C186.679 41.072 187.303 40.9067 187.858 40.576C188.412 40.2347 188.844 39.7653 189.154 39.168C189.474 38.56 189.634 37.8827 189.634 37.136C189.634 36.3147 189.388 35.6747 188.898 35.216C188.418 34.7467 187.74 34.512 186.866 34.512C186.172 34.512 185.548 34.6827 184.994 35.024C184.439 35.3653 184.002 35.84 183.682 36.448C183.372 37.0453 183.218 37.7173 183.218 38.464C183.218 39.2853 183.458 39.9253 183.938 40.384C184.428 40.8427 185.111 41.072 185.986 41.072ZM194.249 38.112C194.238 38.1867 194.233 38.2987 194.233 38.448C194.233 39.3013 194.473 39.952 194.953 40.4C195.444 40.848 196.169 41.072 197.129 41.072C197.684 41.072 198.201 40.9813 198.681 40.8C199.172 40.608 199.572 40.3467 199.881 40.016L200.393 40.832C199.998 41.2267 199.502 41.536 198.905 41.76C198.318 41.9733 197.694 42.08 197.033 42.08C195.817 42.08 194.857 41.76 194.153 41.12C193.46 40.48 193.113 39.6053 193.113 38.496C193.113 37.5573 193.31 36.7093 193.705 35.952C194.11 35.1947 194.665 34.6027 195.369 34.176C196.084 33.7387 196.884 33.52 197.769 33.52C198.889 33.52 199.78 33.84 200.441 34.48C201.102 35.1093 201.433 35.9787 201.433 37.088C201.433 37.3973 201.396 37.7387 201.321 38.112H194.249ZM197.737 34.48C196.894 34.48 196.174 34.7307 195.577 35.232C194.98 35.7333 194.574 36.4107 194.361 37.264H200.361C200.372 37.1893 200.377 37.088 200.377 36.96C200.377 36.1707 200.137 35.5627 199.657 35.136C199.177 34.6987 198.537 34.48 197.737 34.48ZM214.122 33.584L212.442 42H211.402L212.73 35.344L208.202 40.976H207.69L205.418 35.28L204.074 42H203.034L204.714 33.584H205.85L208.202 39.648L213.05 33.584H214.122ZM215.947 40.336C216.181 40.336 216.373 40.416 216.523 40.576C216.683 40.736 216.763 40.9333 216.763 41.168C216.763 41.3067 216.736 41.4347 216.683 41.552C216.64 41.6693 216.565 41.824 216.459 42.016L215.243 44.336H214.475L215.499 41.984C215.36 41.92 215.248 41.824 215.163 41.696C215.088 41.5573 215.051 41.408 215.051 41.248C215.051 40.992 215.136 40.7787 215.307 40.608C215.488 40.4267 215.701 40.336 215.947 40.336ZM231.269 33.584L229.589 42H228.453L229.141 38.528C228.117 38.9333 227.146 39.136 226.229 39.136C225.343 39.136 224.65 38.96 224.149 38.608C223.658 38.2453 223.413 37.7173 223.413 37.024C223.413 36.8427 223.439 36.608 223.493 36.32L224.037 33.584H225.173L224.629 36.336C224.597 36.496 224.581 36.6507 224.581 36.8C224.581 37.2693 224.746 37.6213 225.077 37.856C225.407 38.0907 225.871 38.208 226.469 38.208C227.322 38.208 228.282 37.984 229.349 37.536L230.133 33.584H231.269ZM240.207 34.592H237.007L235.535 42H234.399L235.871 34.592H232.703L232.895 33.584H240.415L240.207 34.592ZM243.827 42.08C243.059 42.08 242.387 41.936 241.811 41.648C241.235 41.3493 240.787 40.9333 240.467 40.4C240.158 39.856 240.003 39.2267 240.003 38.512C240.003 37.5627 240.211 36.7093 240.627 35.952C241.043 35.1947 241.619 34.6027 242.355 34.176C243.102 33.7387 243.939 33.52 244.867 33.52C246.04 33.52 246.968 33.84 247.651 34.48C248.344 35.12 248.691 35.984 248.691 37.072C248.691 38.0213 248.483 38.88 248.067 39.648C247.651 40.4053 247.07 41.0027 246.323 41.44C245.587 41.8667 244.755 42.08 243.827 42.08ZM243.907 41.072C244.6 41.072 245.224 40.9067 245.779 40.576C246.334 40.2347 246.766 39.7653 247.075 39.168C247.395 38.56 247.555 37.8827 247.555 37.136C247.555 36.3147 247.31 35.6747 246.819 35.216C246.339 34.7467 245.662 34.512 244.787 34.512C244.094 34.512 243.47 34.6827 242.915 35.024C242.36 35.3653 241.923 35.84 241.603 36.448C241.294 37.0453 241.139 37.7173 241.139 38.464C241.139 39.2853 241.379 39.9253 241.859 40.384C242.35 40.8427 243.032 41.072 243.907 41.072ZM256.136 33.584H257.272L256.536 37.312H261.816L262.568 33.584H263.704L262.024 42H260.888L261.624 38.288H256.344L255.592 42H254.456L256.136 33.584ZM274.021 33.584L267.877 43.088C267.365 43.8773 266.885 44.4213 266.437 44.72C265.989 45.0293 265.455 45.184 264.837 45.184C264.431 45.184 264.047 45.1147 263.685 44.976C263.322 44.848 263.039 44.6667 262.837 44.432L263.445 43.6C263.829 44.0053 264.325 44.208 264.933 44.208C265.306 44.208 265.642 44.1067 265.941 43.904C266.239 43.7013 266.549 43.3493 266.869 42.848L267.461 41.952L265.365 33.584H266.517L268.261 40.752L272.853 33.584H274.021ZM282.81 37.76L285.002 42H283.674L281.818 38.224H280.01L279.242 42H278.106L278.858 38.224H277.082L273.754 42H272.33L276.25 37.632L274.282 33.584H275.482L277.226 37.296H279.05L279.786 33.584H280.938L280.186 37.296H281.978L285.21 33.584H286.49L282.81 37.76ZM294.013 41.008H295.325L294.733 44.032H293.661L294.061 42H286.525L286.125 44.032H285.053L285.645 41.008H286.077C286.642 40.976 287.117 40.5493 287.501 39.728C287.885 38.9067 288.258 37.7813 288.621 36.352L289.293 33.584H295.485L294.013 41.008ZM289.645 36.512C289.335 37.7387 289.037 38.72 288.749 39.456C288.461 40.192 288.103 40.7093 287.677 41.008H292.877L294.157 34.592H290.109L289.645 36.512ZM306.803 33.584L305.123 42H304.035L304.307 40.672C303.902 41.12 303.422 41.4667 302.867 41.712C302.312 41.9573 301.699 42.08 301.027 42.08C300.312 42.08 299.678 41.936 299.123 41.648C298.568 41.36 298.136 40.9493 297.827 40.416C297.518 39.872 297.363 39.2373 297.363 38.512C297.363 37.5627 297.566 36.7093 297.971 35.952C298.387 35.1947 298.958 34.6027 299.683 34.176C300.408 33.7387 301.219 33.52 302.115 33.52C302.915 33.52 303.587 33.68 304.131 34C304.675 34.3093 305.07 34.7573 305.315 35.344L305.667 33.584H306.803ZM301.267 41.072C301.96 41.072 302.584 40.9067 303.139 40.576C303.694 40.2347 304.126 39.7653 304.435 39.168C304.755 38.56 304.915 37.8827 304.915 37.136C304.915 36.3147 304.67 35.6747 304.179 35.216C303.699 34.7467 303.022 34.512 302.147 34.512C301.454 34.512 300.83 34.6827 300.275 35.024C299.72 35.3653 299.283 35.84 298.963 36.448C298.654 37.0453 298.499 37.7173 298.499 38.464C298.499 39.2853 298.739 39.9253 299.219 40.384C299.71 40.8427 300.392 41.072 301.267 41.072ZM315.754 34.592H312.554L311.082 42H309.946L311.418 34.592H308.25L308.442 33.584H315.962L315.754 34.592ZM320.517 36.544C322.405 36.544 323.349 37.296 323.349 38.8C323.349 39.44 323.183 40.0053 322.853 40.496C322.533 40.976 322.074 41.3493 321.477 41.616C320.89 41.872 320.207 42 319.429 42H315.909L317.589 33.616H318.725L318.149 36.544H320.517ZM319.429 41.136C320.261 41.136 320.933 40.9333 321.445 40.528C321.957 40.112 322.213 39.568 322.213 38.896C322.213 38.3947 322.042 38.0213 321.701 37.776C321.37 37.52 320.863 37.392 320.181 37.392H317.973L317.237 41.136H319.429ZM328.813 42.08C328.024 42.08 327.336 41.936 326.749 41.648C326.162 41.3493 325.709 40.9333 325.389 40.4C325.08 39.856 324.925 39.2267 324.925 38.512C324.925 37.5627 325.133 36.7093 325.549 35.952C325.965 35.1947 326.546 34.6027 327.293 34.176C328.04 33.7387 328.882 33.52 329.821 33.52C330.6 33.52 331.266 33.664 331.821 33.952C332.386 34.2293 332.824 34.6453 333.133 35.2L332.173 35.76C331.693 34.928 330.877 34.512 329.725 34.512C329.032 34.512 328.402 34.6827 327.837 35.024C327.282 35.3653 326.845 35.8347 326.525 36.432C326.216 37.0293 326.061 37.7067 326.061 38.464C326.061 39.2853 326.301 39.9253 326.781 40.384C327.272 40.8427 327.965 41.072 328.861 41.072C329.405 41.072 329.906 40.9707 330.365 40.768C330.834 40.5547 331.218 40.2507 331.517 39.856L332.333 40.48C331.96 40.9813 331.458 41.376 330.829 41.664C330.21 41.9413 329.538 42.08 328.813 42.08ZM341.991 33.584L340.327 42H339.287L339.847 39.168H337.255H336.951L334.439 42H333.143L335.895 38.992C334.796 38.6613 334.247 37.9307 334.247 36.8C334.247 35.7973 334.62 35.0133 335.367 34.448C336.113 33.872 337.132 33.584 338.423 33.584H341.991ZM340.759 34.576H338.343C337.415 34.576 336.695 34.768 336.183 35.152C335.671 35.536 335.414 36.08 335.414 36.784C335.414 37.8187 336.087 38.336 337.431 38.336H340.023L340.759 34.576ZM353.929 37.664C354.857 37.888 355.321 38.4587 355.321 39.376C355.321 40.1973 354.99 40.8427 354.329 41.312C353.678 41.7707 352.777 42 351.625 42H347.737L349.433 33.584H353.097C353.982 33.584 354.654 33.744 355.113 34.064C355.571 34.384 355.801 34.848 355.801 35.456C355.801 35.9893 355.635 36.448 355.305 36.832C354.974 37.216 354.515 37.4933 353.929 37.664ZM349.785 37.328H352.297C353.001 37.328 353.566 37.1733 353.993 36.864C354.43 36.5547 354.649 36.1493 354.649 35.648C354.649 34.8693 354.062 34.48 352.889 34.48H350.361L349.785 37.328ZM351.689 41.104C352.478 41.104 353.091 40.9493 353.529 40.64C353.977 40.3307 354.201 39.8987 354.201 39.344C354.201 38.928 354.062 38.6293 353.785 38.448C353.518 38.2667 353.07 38.176 352.441 38.176H349.625L349.033 41.104H351.689ZM370.891 33.584L369.211 42H368.075L369.531 34.592H364.251L362.795 42H361.659L363.339 33.584H370.891ZM376.28 42.08C375.512 42.08 374.84 41.936 374.264 41.648C373.688 41.3493 373.24 40.9333 372.92 40.4C372.611 39.856 372.456 39.2267 372.456 38.512C372.456 37.5627 372.664 36.7093 373.08 35.952C373.496 35.1947 374.072 34.6027 374.808 34.176C375.555 33.7387 376.392 33.52 377.32 33.52C378.494 33.52 379.422 33.84 380.104 34.48C380.798 35.12 381.144 35.984 381.144 37.072C381.144 38.0213 380.936 38.88 380.52 39.648C380.104 40.4053 379.523 41.0027 378.776 41.44C378.04 41.8667 377.208 42.08 376.28 42.08ZM376.36 41.072C377.054 41.072 377.678 40.9067 378.232 40.576C378.787 40.2347 379.219 39.7653 379.528 39.168C379.848 38.56 380.008 37.8827 380.008 37.136C380.008 36.3147 379.763 35.6747 379.272 35.216C378.792 34.7467 378.115 34.512 377.24 34.512C376.547 34.512 375.923 34.6827 375.368 35.024C374.814 35.3653 374.376 35.84 374.056 36.448C373.747 37.0453 373.592 37.7173 373.592 38.464C373.592 39.2853 373.832 39.9253 374.312 40.384C374.803 40.8427 375.486 41.072 376.36 41.072ZM393.809 33.584L392.129 42H391.089L392.417 35.344L387.889 40.976H387.377L385.105 35.28L383.761 42H382.721L384.401 33.584H385.537L387.889 39.648L392.737 33.584H393.809ZM399.202 42.08C398.434 42.08 397.762 41.936 397.186 41.648C396.61 41.3493 396.162 40.9333 395.842 40.4C395.533 39.856 395.378 39.2267 395.378 38.512C395.378 37.5627 395.586 36.7093 396.002 35.952C396.418 35.1947 396.994 34.6027 397.73 34.176C398.477 33.7387 399.314 33.52 400.242 33.52C401.415 33.52 402.343 33.84 403.026 34.48C403.719 35.12 404.066 35.984 404.066 37.072C404.066 38.0213 403.858 38.88 403.442 39.648C403.026 40.4053 402.445 41.0027 401.698 41.44C400.962 41.8667 400.13 42.08 399.202 42.08ZM399.282 41.072C399.975 41.072 400.599 40.9067 401.154 40.576C401.709 40.2347 402.141 39.7653 402.45 39.168C402.77 38.56 402.93 37.8827 402.93 37.136C402.93 36.3147 402.685 35.6747 402.194 35.216C401.714 34.7467 401.037 34.512 400.162 34.512C399.469 34.512 398.845 34.6827 398.29 35.024C397.735 35.3653 397.298 35.84 396.978 36.448C396.669 37.0453 396.514 37.7173 396.514 38.464C396.514 39.2853 396.754 39.9253 397.234 40.384C397.725 40.8427 398.407 41.072 399.282 41.072ZM418.955 33.584L417.259 42H405.643L407.323 33.584H408.459L407.003 41.008H411.115L412.587 33.584H413.723L412.251 41.008H416.347L417.819 33.584H418.955ZM418.747 41.008L418.171 43.84H417.099L417.467 42H416.059L416.267 41.008H418.747ZM422.48 33.584H423.616L422.256 40.384L429.168 33.584H430.256L428.576 42H427.408L428.8 35.2L421.888 42H420.784L422.48 33.584ZM437.683 33.584H438.819L437.459 40.384L444.371 33.584H445.459L443.779 42H442.611L444.003 35.2L437.091 42H435.987L437.683 33.584ZM460.422 33.584L458.742 42H457.606L459.062 34.592H453.782L452.326 42H451.19L452.87 33.584H460.422ZM465.812 42.08C465.044 42.08 464.372 41.936 463.796 41.648C463.22 41.3493 462.772 40.9333 462.452 40.4C462.142 39.856 461.988 39.2267 461.988 38.512C461.988 37.5627 462.196 36.7093 462.612 35.952C463.028 35.1947 463.604 34.6027 464.34 34.176C465.086 33.7387 465.924 33.52 466.852 33.52C468.025 33.52 468.953 33.84 469.635 34.48C470.329 35.12 470.676 35.984 470.676 37.072C470.676 38.0213 470.468 38.88 470.052 39.648C469.636 40.4053 469.054 41.0027 468.308 41.44C467.572 41.8667 466.74 42.08 465.812 42.08ZM465.891 41.072C466.585 41.072 467.209 40.9067 467.764 40.576C468.318 40.2347 468.75 39.7653 469.06 39.168C469.38 38.56 469.54 37.8827 469.54 37.136C469.54 36.3147 469.294 35.6747 468.804 35.216C468.324 34.7467 467.646 34.512 466.772 34.512C466.078 34.512 465.454 34.6827 464.9 35.024C464.345 35.3653 463.908 35.84 463.588 36.448C463.278 37.0453 463.124 37.7173 463.124 38.464C463.124 39.2853 463.364 39.9253 463.844 40.384C464.334 40.8427 465.017 41.072 465.891 41.072ZM479.31 41.008H480.622L480.03 44.032H478.958L479.358 42H471.822L471.421 44.032H470.349L470.941 41.008H471.373C471.939 40.976 472.414 40.5493 472.798 39.728C473.182 38.9067 473.555 37.7813 473.918 36.352L474.59 33.584H480.782L479.31 41.008ZM474.942 36.512C474.632 37.7387 474.334 38.72 474.046 39.456C473.758 40.192 473.4 40.7093 472.974 41.008H478.174L479.454 34.592H475.406L474.942 36.512ZM489.716 41.008H491.028L490.436 44.032H489.364L489.764 42H482.228L481.828 44.032H480.756L481.348 41.008H481.78C482.345 40.976 482.82 40.5493 483.204 39.728C483.588 38.9067 483.961 37.7813 484.324 36.352L484.996 33.584H491.188L489.716 41.008ZM485.348 36.512C485.038 37.7387 484.74 38.72 484.452 39.456C484.164 40.192 483.806 40.7093 483.38 41.008H488.58L489.86 34.592H485.812L485.348 36.512ZM494.202 38.112C494.191 38.1867 494.186 38.2987 494.186 38.448C494.186 39.3013 494.426 39.952 494.906 40.4C495.397 40.848 496.122 41.072 497.082 41.072C497.637 41.072 498.154 40.9813 498.634 40.8C499.125 40.608 499.525 40.3467 499.834 40.016L500.346 40.832C499.951 41.2267 499.455 41.536 498.858 41.76C498.271 41.9733 497.647 42.08 496.986 42.08C495.77 42.08 494.81 41.76 494.106 41.12C493.413 40.48 493.066 39.6053 493.066 38.496C493.066 37.5573 493.263 36.7093 493.658 35.952C494.063 35.1947 494.618 34.6027 495.322 34.176C496.037 33.7387 496.837 33.52 497.722 33.52C498.842 33.52 499.733 33.84 500.394 34.48C501.055 35.1093 501.386 35.9787 501.386 37.088C501.386 37.3973 501.349 37.7387 501.274 38.112H494.202ZM497.69 34.48C496.847 34.48 496.127 34.7307 495.53 35.232C494.933 35.7333 494.527 36.4107 494.314 37.264H500.314C500.325 37.1893 500.33 37.088 500.33 36.96C500.33 36.1707 500.09 35.5627 499.61 35.136C499.13 34.6987 498.49 34.48 497.69 34.48ZM508.779 33.52C509.493 33.52 510.128 33.664 510.683 33.952C511.248 34.24 511.685 34.6507 511.995 35.184C512.304 35.7173 512.459 36.3467 512.459 37.072C512.459 38.0213 512.251 38.88 511.835 39.648C511.429 40.4053 510.864 41.0027 510.139 41.44C509.413 41.8667 508.597 42.08 507.691 42.08C506.891 42.08 506.219 41.9253 505.675 41.616C505.131 41.296 504.736 40.8373 504.491 40.24L503.531 45.104H502.395L504.683 33.584H505.771L505.499 34.928C505.904 34.4693 506.384 34.1227 506.939 33.888C507.493 33.6427 508.107 33.52 508.779 33.52ZM507.675 41.072C508.368 41.072 508.987 40.9067 509.531 40.576C510.085 40.2347 510.517 39.7653 510.827 39.168C511.147 38.5707 511.307 37.8933 511.307 37.136C511.307 36.3147 511.061 35.6747 510.571 35.216C510.091 34.7467 509.413 34.512 508.539 34.512C507.845 34.512 507.221 34.6827 506.667 35.024C506.123 35.3547 505.691 35.824 505.371 36.432C505.061 37.0293 504.907 37.7067 504.907 38.464C504.907 39.2853 505.147 39.9253 505.627 40.384C506.117 40.8427 506.8 41.072 507.675 41.072ZM522.873 37.76L525.065 42H523.737L521.881 38.224H520.073L519.305 42H518.169L518.921 38.224H517.145L513.817 42H512.393L516.313 37.632L514.345 33.584H515.545L517.289 37.296H519.113L519.849 33.584H521.001L520.249 37.296H522.041L525.273 33.584H526.553L522.873 37.76ZM531.739 37.728L534.443 42H533.147L530.843 38.256H528.859L528.107 42H526.971L528.667 33.584H529.803L529.051 37.28H530.923L534.651 33.584H535.931L531.739 37.728ZM537.124 38.112C537.113 38.1867 537.108 38.2987 537.108 38.448C537.108 39.3013 537.348 39.952 537.828 40.4C538.319 40.848 539.044 41.072 540.004 41.072C540.559 41.072 541.076 40.9813 541.556 40.8C542.047 40.608 542.447 40.3467 542.756 40.016L543.268 40.832C542.873 41.2267 542.377 41.536 541.78 41.76C541.193 41.9733 540.569 42.08 539.908 42.08C538.692 42.08 537.732 41.76 537.028 41.12C536.335 40.48 535.988 39.6053 535.988 38.496C535.988 37.5573 536.185 36.7093 536.58 35.952C536.985 35.1947 537.54 34.6027 538.244 34.176C538.959 33.7387 539.759 33.52 540.644 33.52C541.764 33.52 542.655 33.84 543.316 34.48C543.977 35.1093 544.308 35.9787 544.308 37.088C544.308 37.3973 544.271 37.7387 544.196 38.112H537.124ZM540.612 34.48C539.769 34.48 539.049 34.7307 538.452 35.232C537.855 35.7333 537.449 36.4107 537.236 37.264H543.236C543.247 37.1893 543.252 37.088 543.252 36.96C543.252 36.1707 543.012 35.5627 542.532 35.136C542.052 34.6987 541.412 34.48 540.612 34.48ZM556.288 37.664C557.216 37.888 557.68 38.4587 557.68 39.376C557.68 40.1973 557.349 40.8427 556.688 41.312C556.037 41.7707 555.136 42 553.984 42H550.096L551.792 33.584H555.456C556.341 33.584 557.013 33.744 557.472 34.064C557.931 34.384 558.16 34.848 558.16 35.456C558.16 35.9893 557.995 36.448 557.664 36.832C557.333 37.216 556.875 37.4933 556.288 37.664ZM552.144 37.328H554.656C555.36 37.328 555.925 37.1733 556.352 36.864C556.789 36.5547 557.008 36.1493 557.008 35.648C557.008 34.8693 556.421 34.48 555.248 34.48H552.72L552.144 37.328ZM554.048 41.104C554.837 41.104 555.451 40.9493 555.888 40.64C556.336 40.3307 556.56 39.8987 556.56 39.344C556.56 38.928 556.421 38.6293 556.144 38.448C555.877 38.2667 555.429 38.176 554.8 38.176H551.984L551.392 41.104H554.048ZM131.949 58.592H128.749L127.277 66H126.141L127.613 58.592H124.445L124.637 57.584H132.157L131.949 58.592ZM137.896 57.52C138.611 57.52 139.245 57.664 139.8 57.952C140.365 58.24 140.803 58.6507 141.112 59.184C141.421 59.7173 141.576 60.3467 141.576 61.072C141.576 62.0213 141.368 62.88 140.952 63.648C140.547 64.4053 139.981 65.0027 139.256 65.44C138.531 65.8667 137.715 66.08 136.808 66.08C136.008 66.08 135.336 65.9253 134.792 65.616C134.248 65.296 133.853 64.8373 133.608 64.24L132.648 69.104H131.512L133.8 57.584H134.888L134.616 58.928C135.021 58.4693 135.501 58.1227 136.056 57.888C136.611 57.6427 137.224 57.52 137.896 57.52ZM136.792 65.072C137.485 65.072 138.104 64.9067 138.648 64.576C139.203 64.2347 139.635 63.7653 139.944 63.168C140.264 62.5707 140.424 61.8933 140.424 61.136C140.424 60.3147 140.179 59.6747 139.688 59.216C139.208 58.7467 138.531 58.512 137.656 58.512C136.963 58.512 136.339 58.6827 135.784 59.024C135.24 59.3547 134.808 59.824 134.488 60.432C134.179 61.0293 134.024 61.7067 134.024 62.464C134.024 63.2853 134.264 63.9253 134.744 64.384C135.235 64.8427 135.917 65.072 136.792 65.072ZM151.7 57.584L145.556 67.088C145.044 67.8773 144.564 68.4213 144.116 68.72C143.668 69.0293 143.135 69.184 142.516 69.184C142.111 69.184 141.727 69.1147 141.364 68.976C141.002 68.848 140.719 68.6667 140.516 68.432L141.124 67.6C141.508 68.0053 142.004 68.208 142.612 68.208C142.986 68.208 143.322 68.1067 143.62 67.904C143.919 67.7013 144.228 67.3493 144.548 66.848L145.14 65.952L143.044 57.584H144.196L145.94 64.752L150.532 57.584H151.7ZM158.567 65.008H159.879L159.287 68.032H158.215L158.615 66H151.079L150.679 68.032H149.607L150.199 65.008H150.631C151.197 64.976 151.671 64.5493 152.055 63.728C152.439 62.9067 152.813 61.7813 153.175 60.352L153.847 57.584H160.039L158.567 65.008ZM154.199 60.512C153.89 61.7387 153.591 62.72 153.303 63.456C153.015 64.192 152.658 64.7093 152.231 65.008H157.431L158.711 58.592H154.663L154.199 60.512ZM163.55 57.584H164.686L163.95 61.312H169.23L169.982 57.584H171.118L169.438 66H168.302L169.038 62.288H163.758L163.006 66H161.87L163.55 57.584ZM182.523 57.584H183.659L181.979 66H180.843L182.523 57.584ZM177.195 60.544C179.083 60.544 180.027 61.296 180.027 62.8C180.027 63.44 179.861 64.0053 179.531 64.496C179.211 64.976 178.752 65.3493 178.155 65.616C177.568 65.872 176.885 66 176.107 66H172.651L174.331 57.616H175.467L174.891 60.544H177.195ZM176.107 65.136C176.939 65.136 177.611 64.9333 178.123 64.528C178.635 64.112 178.891 63.568 178.891 62.896C178.891 62.3947 178.72 62.0213 178.379 61.776C178.048 61.52 177.541 61.392 176.859 61.392H174.715L173.979 65.136H176.107ZM186.382 62.112C186.371 62.1867 186.366 62.2987 186.366 62.448C186.366 63.3013 186.606 63.952 187.086 64.4C187.576 64.848 188.302 65.072 189.262 65.072C189.816 65.072 190.334 64.9813 190.814 64.8C191.304 64.608 191.704 64.3467 192.014 64.016L192.526 64.832C192.131 65.2267 191.635 65.536 191.038 65.76C190.451 65.9733 189.827 66.08 189.166 66.08C187.95 66.08 186.99 65.76 186.286 65.12C185.592 64.48 185.246 63.6053 185.246 62.496C185.246 61.5573 185.443 60.7093 185.838 59.952C186.243 59.1947 186.798 58.6027 187.502 58.176C188.216 57.7387 189.016 57.52 189.902 57.52C191.022 57.52 191.912 57.84 192.574 58.48C193.235 59.1093 193.566 59.9787 193.566 61.088C193.566 61.3973 193.528 61.7387 193.454 62.112H186.382ZM189.87 58.48C189.027 58.48 188.307 58.7307 187.71 59.232C187.112 59.7333 186.707 60.4107 186.494 61.264H192.494C192.504 61.1893 192.51 61.088 192.51 60.96C192.51 60.1707 192.27 59.5627 191.79 59.136C191.31 58.6987 190.67 58.48 189.87 58.48ZM208.586 57.584L206.906 66H205.77L207.226 58.592H201.946L200.49 66H199.354L201.034 57.584H208.586ZM211.304 62.112C211.293 62.1867 211.288 62.2987 211.288 62.448C211.288 63.3013 211.528 63.952 212.008 64.4C212.498 64.848 213.224 65.072 214.184 65.072C214.738 65.072 215.256 64.9813 215.736 64.8C216.226 64.608 216.626 64.3467 216.936 64.016L217.448 64.832C217.053 65.2267 216.557 65.536 215.96 65.76C215.373 65.9733 214.749 66.08 214.088 66.08C212.872 66.08 211.912 65.76 211.208 65.12C210.514 64.48 210.168 63.6053 210.168 62.496C210.168 61.5573 210.365 60.7093 210.76 59.952C211.165 59.1947 211.72 58.6027 212.424 58.176C213.138 57.7387 213.938 57.52 214.824 57.52C215.944 57.52 216.834 57.84 217.496 58.48C218.157 59.1093 218.488 59.9787 218.488 61.088C218.488 61.3973 218.45 61.7387 218.376 62.112H211.304ZM214.792 58.48C213.949 58.48 213.229 58.7307 212.632 59.232C212.034 59.7333 211.629 60.4107 211.416 61.264H217.416C217.426 61.1893 217.432 61.088 217.432 60.96C217.432 60.1707 217.192 59.5627 216.712 59.136C216.232 58.6987 215.592 58.48 214.792 58.48ZM225.88 57.52C226.595 57.52 227.23 57.664 227.784 57.952C228.35 58.24 228.787 58.6507 229.096 59.184C229.406 59.7173 229.56 60.3467 229.56 61.072C229.56 62.0213 229.352 62.88 228.936 63.648C228.531 64.4053 227.966 65.0027 227.24 65.44C226.515 65.8667 225.699 66.08 224.792 66.08C223.992 66.08 223.32 65.9253 222.776 65.616C222.232 65.296 221.838 64.8373 221.592 64.24L220.632 69.104H219.496L221.784 57.584H222.872L222.6 58.928C223.006 58.4693 223.486 58.1227 224.04 57.888C224.595 57.6427 225.208 57.52 225.88 57.52ZM224.776 65.072C225.47 65.072 226.088 64.9067 226.632 64.576C227.187 64.2347 227.619 63.7653 227.928 63.168C228.248 62.5707 228.408 61.8933 228.408 61.136C228.408 60.3147 228.163 59.6747 227.672 59.216C227.192 58.7467 226.515 58.512 225.64 58.512C224.947 58.512 224.323 58.6827 223.768 59.024C223.224 59.3547 222.792 59.824 222.472 60.432C222.163 61.0293 222.008 61.7067 222.008 62.464C222.008 63.2853 222.248 63.9253 222.728 64.384C223.219 64.8427 223.902 65.072 224.776 65.072ZM232.831 57.584H233.967L232.607 64.384L239.519 57.584H240.607L238.927 66H237.759L239.151 59.2L232.239 66H231.135L232.831 57.584ZM246.007 66.08C245.239 66.08 244.567 65.936 243.991 65.648C243.415 65.3493 242.967 64.9333 242.647 64.4C242.337 63.856 242.183 63.2267 242.183 62.512C242.183 61.5627 242.391 60.7093 242.807 59.952C243.223 59.1947 243.799 58.6027 244.535 58.176C245.281 57.7387 246.119 57.52 247.047 57.52C248.22 57.52 249.148 57.84 249.831 58.48C250.524 59.12 250.871 59.984 250.871 61.072C250.871 62.0213 250.663 62.88 250.247 63.648C249.831 64.4053 249.249 65.0027 248.503 65.44C247.767 65.8667 246.935 66.08 246.007 66.08ZM246.087 65.072C246.78 65.072 247.404 64.9067 247.959 64.576C248.513 64.2347 248.945 63.7653 249.255 63.168C249.575 62.56 249.735 61.8827 249.735 61.136C249.735 60.3147 249.489 59.6747 248.999 59.216C248.519 58.7467 247.841 58.512 246.967 58.512C246.273 58.512 245.649 58.6827 245.095 59.024C244.54 59.3653 244.103 59.84 243.783 60.448C243.473 61.0453 243.319 61.7173 243.319 62.464C243.319 63.2853 243.559 63.9253 244.039 64.384C244.529 64.8427 245.212 65.072 246.087 65.072ZM259.505 65.008H260.817L260.225 68.032H259.153L259.553 66H252.017L251.617 68.032H250.545L251.137 65.008H251.569C252.134 64.976 252.609 64.5493 252.993 63.728C253.377 62.9067 253.75 61.7813 254.113 60.352L254.785 57.584H260.977L259.505 65.008ZM255.137 60.512C254.827 61.7387 254.529 62.72 254.241 63.456C253.953 64.192 253.595 64.7093 253.169 65.008H258.369L259.649 58.592H255.601L255.137 60.512ZM272.679 57.584H273.815L272.135 66H270.999L272.679 57.584ZM267.351 60.544C269.239 60.544 270.183 61.296 270.183 62.8C270.183 63.44 270.018 64.0053 269.687 64.496C269.367 64.976 268.908 65.3493 268.311 65.616C267.724 65.872 267.042 66 266.263 66H262.807L264.487 57.616H265.623L265.047 60.544H267.351ZM266.263 65.136C267.095 65.136 267.767 64.9333 268.279 64.528C268.791 64.112 269.047 63.568 269.047 62.896C269.047 62.3947 268.876 62.0213 268.535 61.776C268.204 61.52 267.698 61.392 267.015 61.392H264.871L264.135 65.136H266.263ZM288.677 61.76L290.869 66H289.541L287.685 62.224H285.877L285.109 66H283.973L284.725 62.224H282.949L279.621 66H278.197L282.117 61.632L280.149 57.584H281.349L283.093 61.296H284.917L285.653 57.584H286.805L286.053 61.296H287.845L291.077 57.584H292.357L288.677 61.76ZM294.472 57.584H295.608L294.248 64.384L301.16 57.584H302.248L300.568 66H299.4L300.792 59.2L293.88 66H292.776L294.472 57.584ZM308.356 61.648C308.889 61.7867 309.294 62.0107 309.572 62.32C309.849 62.6187 309.988 62.992 309.988 63.44C309.988 63.9413 309.812 64.3947 309.46 64.8C309.118 65.2053 308.638 65.5253 308.02 65.76C307.412 65.984 306.729 66.096 305.972 66.096C304.66 66.096 303.588 65.7387 302.756 65.024L303.236 64.224C303.545 64.512 303.94 64.7307 304.42 64.88C304.9 65.0293 305.422 65.104 305.988 65.104C306.532 65.104 307.022 65.0293 307.46 64.88C307.897 64.7307 308.238 64.5227 308.484 64.256C308.729 63.9893 308.852 63.6907 308.852 63.36C308.852 62.9547 308.67 62.64 308.308 62.416C307.956 62.192 307.465 62.08 306.836 62.08H305.444L305.572 61.216H306.772C307.497 61.216 308.078 61.0827 308.516 60.816C308.964 60.5493 309.188 60.1973 309.188 59.76C309.188 59.3547 309.012 59.04 308.66 58.816C308.308 58.592 307.822 58.48 307.204 58.48C306.404 58.48 305.513 58.7093 304.532 59.168L304.212 58.224C305.236 57.7333 306.265 57.488 307.3 57.488C308.217 57.488 308.953 57.68 309.508 58.064C310.073 58.4373 310.356 58.944 310.356 59.584C310.356 60.0747 310.18 60.5013 309.828 60.864C309.476 61.2267 308.985 61.488 308.356 61.648ZM313.706 57.584H314.842L314.106 61.312H319.386L320.138 57.584H321.274L319.594 66H318.458L319.194 62.288H313.914L313.162 66H312.026L313.706 57.584ZM324.503 57.584H325.639L324.279 64.384L331.191 57.584H332.279L330.599 66H329.431L330.823 59.2L323.911 66H322.807L324.503 57.584ZM347.498 57.584L345.818 66H344.73L345.002 64.672C344.597 65.12 344.117 65.4667 343.562 65.712C343.008 65.9573 342.394 66.08 341.722 66.08C341.008 66.08 340.373 65.936 339.818 65.648C339.264 65.36 338.832 64.9493 338.522 64.416C338.213 63.872 338.058 63.2373 338.058 62.512C338.058 61.5627 338.261 60.7093 338.666 59.952C339.082 59.1947 339.653 58.6027 340.378 58.176C341.104 57.7387 341.914 57.52 342.81 57.52C343.61 57.52 344.282 57.68 344.826 58C345.37 58.3093 345.765 58.7573 346.01 59.344L346.362 57.584H347.498ZM341.962 65.072C342.656 65.072 343.28 64.9067 343.834 64.576C344.389 64.2347 344.821 63.7653 345.13 63.168C345.45 62.56 345.61 61.8827 345.61 61.136C345.61 60.3147 345.365 59.6747 344.874 59.216C344.394 58.7467 343.717 58.512 342.842 58.512C342.149 58.512 341.525 58.6827 340.97 59.024C340.416 59.3653 339.978 59.84 339.658 60.448C339.349 61.0453 339.194 61.7173 339.194 62.464C339.194 63.2853 339.434 63.9253 339.914 64.384C340.405 64.8427 341.088 65.072 341.962 65.072ZM354.705 58.032C355.772 58.032 356.604 58.3307 357.201 58.928C357.809 59.5147 358.113 60.3253 358.113 61.36C358.113 62.256 357.9 63.0667 357.473 63.792C357.047 64.5173 356.46 65.088 355.713 65.504C354.967 65.92 354.129 66.128 353.201 66.128C351.996 66.128 351.057 65.7707 350.385 65.056C349.724 64.3413 349.393 63.3173 349.393 61.984C349.393 60.8213 349.628 59.7333 350.097 58.72C350.567 57.7067 351.217 56.8533 352.049 56.16C352.892 55.4667 353.857 55.0027 354.945 54.768L358.849 53.952L358.881 54.944L355.201 55.712C354.081 55.9467 353.137 56.4373 352.369 57.184C351.612 57.92 351.073 58.8587 350.753 60C351.255 59.36 351.836 58.8747 352.497 58.544C353.169 58.2027 353.905 58.032 354.705 58.032ZM353.265 65.232C353.937 65.232 354.551 65.072 355.105 64.752C355.66 64.4213 356.097 63.9787 356.417 63.424C356.737 62.8587 356.897 62.2347 356.897 61.552C356.897 60.752 356.673 60.1387 356.225 59.712C355.788 59.2747 355.159 59.056 354.337 59.056C353.687 59.056 353.063 59.2107 352.465 59.52C351.879 59.8293 351.404 60.24 351.041 60.752C350.689 61.2533 350.513 61.7813 350.513 62.336C350.513 63.232 350.759 63.9413 351.249 64.464C351.74 64.976 352.412 65.232 353.265 65.232ZM363.602 66.08C362.813 66.08 362.125 65.936 361.538 65.648C360.951 65.3493 360.498 64.9333 360.178 64.4C359.869 63.856 359.714 63.2267 359.714 62.512C359.714 61.5627 359.922 60.7093 360.338 59.952C360.754 59.1947 361.335 58.6027 362.082 58.176C362.829 57.7387 363.671 57.52 364.61 57.52C365.389 57.52 366.055 57.664 366.61 57.952C367.175 58.2293 367.613 58.6453 367.922 59.2L366.962 59.76C366.482 58.928 365.666 58.512 364.514 58.512C363.821 58.512 363.191 58.6827 362.626 59.024C362.071 59.3653 361.634 59.8347 361.314 60.432C361.005 61.0293 360.85 61.7067 360.85 62.464C360.85 63.2853 361.09 63.9253 361.57 64.384C362.061 64.8427 362.754 65.072 363.65 65.072C364.194 65.072 364.695 64.9707 365.154 64.768C365.623 64.5547 366.007 64.2507 366.306 63.856L367.122 64.48C366.749 64.9813 366.247 65.376 365.618 65.664C364.999 65.9413 364.327 66.08 363.602 66.08ZM372.616 66.08C371.848 66.08 371.176 65.936 370.6 65.648C370.024 65.3493 369.576 64.9333 369.256 64.4C368.947 63.856 368.792 63.2267 368.792 62.512C368.792 61.5627 369 60.7093 369.416 59.952C369.832 59.1947 370.408 58.6027 371.144 58.176C371.891 57.7387 372.728 57.52 373.656 57.52C374.83 57.52 375.758 57.84 376.44 58.48C377.134 59.12 377.48 59.984 377.48 61.072C377.48 62.0213 377.272 62.88 376.856 63.648C376.44 64.4053 375.859 65.0027 375.112 65.44C374.376 65.8667 373.544 66.08 372.616 66.08ZM372.696 65.072C373.39 65.072 374.014 64.9067 374.568 64.576C375.123 64.2347 375.555 63.7653 375.864 63.168C376.184 62.56 376.344 61.8827 376.344 61.136C376.344 60.3147 376.099 59.6747 375.608 59.216C375.128 58.7467 374.451 58.512 373.576 58.512C372.883 58.512 372.259 58.6827 371.704 59.024C371.15 59.3653 370.712 59.84 370.392 60.448C370.083 61.0453 369.928 61.7173 369.928 62.464C369.928 63.2853 370.168 63.9253 370.648 64.384C371.139 64.8427 371.822 65.072 372.696 65.072ZM387.586 57.584L385.89 66H384.754L386.226 58.592H382.21L381.698 60.672C381.368 61.952 381.048 62.9867 380.738 63.776C380.429 64.5547 380.077 65.1413 379.682 65.536C379.298 65.92 378.845 66.112 378.322 66.112C378.109 66.112 377.832 66.0693 377.49 65.984L377.762 65.008C377.954 65.0507 378.082 65.072 378.146 65.072C378.69 65.072 379.149 64.7147 379.522 64C379.906 63.2747 380.296 62.128 380.69 60.56L381.426 57.584H387.586ZM397.76 57.52C398.901 57.52 399.813 57.84 400.496 58.48C401.178 59.12 401.52 59.9787 401.52 61.056C401.52 62.0053 401.312 62.864 400.896 63.632C400.49 64.3893 399.92 64.9867 399.184 65.424C398.448 65.8613 397.621 66.08 396.704 66.08C395.946 66.08 395.285 65.936 394.72 65.648C394.154 65.3493 393.717 64.9333 393.408 64.4C393.098 63.856 392.944 63.232 392.944 62.528V62.256H391.024L390.272 66H389.136L390.816 57.584H391.952L391.232 61.216H393.088C393.258 60.4907 393.562 59.8507 394 59.296C394.448 58.7307 394.992 58.2933 395.632 57.984C396.282 57.6747 396.992 57.52 397.76 57.52ZM396.8 65.072C397.482 65.072 398.09 64.9067 398.624 64.576C399.168 64.2347 399.594 63.7653 399.904 63.168C400.213 62.56 400.368 61.8773 400.368 61.12C400.368 60.2987 400.133 59.6587 399.664 59.2C399.194 58.7413 398.533 58.512 397.68 58.512C396.997 58.512 396.384 58.6827 395.84 59.024C395.296 59.3653 394.869 59.84 394.56 60.448C394.25 61.0453 394.096 61.7227 394.096 62.48C394.096 63.3013 394.33 63.9413 394.8 64.4C395.269 64.848 395.936 65.072 396.8 65.072ZM410.199 58.592H406.999L405.527 66H404.391L405.863 58.592H402.695L402.887 57.584H410.407L410.199 58.592ZM412.034 57.584H413.17L412.434 61.312H417.714L418.466 57.584H419.602L417.922 66H416.786L417.522 62.288H412.242L411.49 66H410.354L412.034 57.584ZM424.991 66.08C424.223 66.08 423.551 65.936 422.975 65.648C422.399 65.3493 421.951 64.9333 421.631 64.4C421.322 63.856 421.167 63.2267 421.167 62.512C421.167 61.5627 421.375 60.7093 421.791 59.952C422.207 59.1947 422.783 58.6027 423.519 58.176C424.266 57.7387 425.103 57.52 426.031 57.52C427.205 57.52 428.133 57.84 428.815 58.48C429.509 59.12 429.855 59.984 429.855 61.072C429.855 62.0213 429.647 62.88 429.231 63.648C428.815 64.4053 428.234 65.0027 427.487 65.44C426.751 65.8667 425.919 66.08 424.991 66.08ZM425.071 65.072C425.765 65.072 426.389 64.9067 426.943 64.576C427.498 64.2347 427.93 63.7653 428.239 63.168C428.559 62.56 428.719 61.8827 428.719 61.136C428.719 60.3147 428.474 59.6747 427.983 59.216C427.503 58.7467 426.826 58.512 425.951 58.512C425.258 58.512 424.634 58.6827 424.079 59.024C423.525 59.3653 423.087 59.84 422.767 60.448C422.458 61.0453 422.303 61.7173 422.303 62.464C422.303 63.2853 422.543 63.9253 423.023 64.384C423.514 64.8427 424.197 65.072 425.071 65.072ZM437.3 57.584H438.436L437.7 61.312H442.98L443.732 57.584H444.868L443.188 66H442.052L442.788 62.288H437.508L436.756 66H435.62L437.3 57.584ZM450.257 66.08C449.489 66.08 448.817 65.936 448.241 65.648C447.665 65.3493 447.217 64.9333 446.897 64.4C446.587 63.856 446.433 63.2267 446.433 62.512C446.433 61.5627 446.641 60.7093 447.057 59.952C447.473 59.1947 448.049 58.6027 448.785 58.176C449.531 57.7387 450.369 57.52 451.297 57.52C452.47 57.52 453.398 57.84 454.081 58.48C454.774 59.12 455.121 59.984 455.121 61.072C455.121 62.0213 454.913 62.88 454.497 63.648C454.081 64.4053 453.499 65.0027 452.753 65.44C452.017 65.8667 451.185 66.08 450.257 66.08ZM450.337 65.072C451.03 65.072 451.654 64.9067 452.209 64.576C452.763 64.2347 453.195 63.7653 453.505 63.168C453.825 62.56 453.985 61.8827 453.985 61.136C453.985 60.3147 453.739 59.6747 453.249 59.216C452.769 58.7467 452.091 58.512 451.217 58.512C450.523 58.512 449.899 58.6827 449.345 59.024C448.79 59.3653 448.353 59.84 448.033 60.448C447.723 61.0453 447.569 61.7173 447.569 62.464C447.569 63.2853 447.809 63.9253 448.289 64.384C448.779 64.8427 449.462 65.072 450.337 65.072ZM462.49 57.52C463.204 57.52 463.839 57.664 464.394 57.952C464.959 58.24 465.396 58.6507 465.706 59.184C466.015 59.7173 466.17 60.3467 466.17 61.072C466.17 62.0213 465.962 62.88 465.546 63.648C465.14 64.4053 464.575 65.0027 463.85 65.44C463.124 65.8667 462.308 66.08 461.402 66.08C460.602 66.08 459.93 65.9253 459.386 65.616C458.842 65.296 458.447 64.8373 458.202 64.24L457.242 69.104H456.106L458.394 57.584H459.482L459.21 58.928C459.615 58.4693 460.095 58.1227 460.65 57.888C461.204 57.6427 461.818 57.52 462.49 57.52ZM461.386 65.072C462.079 65.072 462.698 64.9067 463.242 64.576C463.796 64.2347 464.228 63.7653 464.538 63.168C464.858 62.5707 465.018 61.8933 465.018 61.136C465.018 60.3147 464.772 59.6747 464.282 59.216C463.802 58.7467 463.124 58.512 462.25 58.512C461.556 58.512 460.932 58.6827 460.378 59.024C459.834 59.3547 459.402 59.824 459.082 60.432C458.772 61.0293 458.618 61.7067 458.618 62.464C458.618 63.2853 458.858 63.9253 459.338 64.384C459.828 64.8427 460.511 65.072 461.386 65.072ZM478.833 57.584L477.153 66H476.113L477.441 59.344L472.913 64.976H472.401L470.129 59.28L468.785 66H467.745L469.425 57.584H470.561L472.913 63.648L477.761 57.584H478.833ZM489.858 57.584L488.178 66H487.09L487.362 64.672C486.956 65.12 486.476 65.4667 485.922 65.712C485.367 65.9573 484.754 66.08 484.082 66.08C483.367 66.08 482.732 65.936 482.178 65.648C481.623 65.36 481.191 64.9493 480.882 64.416C480.572 63.872 480.418 63.2373 480.418 62.512C480.418 61.5627 480.62 60.7093 481.026 59.952C481.442 59.1947 482.012 58.6027 482.738 58.176C483.463 57.7387 484.274 57.52 485.17 57.52C485.97 57.52 486.642 57.68 487.186 58C487.73 58.3093 488.124 58.7573 488.37 59.344L488.722 57.584H489.858ZM484.322 65.072C485.015 65.072 485.639 64.9067 486.194 64.576C486.748 64.2347 487.18 63.7653 487.49 63.168C487.81 62.56 487.97 61.8827 487.97 61.136C487.97 60.3147 487.724 59.6747 487.234 59.216C486.754 58.7467 486.076 58.512 485.202 58.512C484.508 58.512 483.884 58.6827 483.33 59.024C482.775 59.3653 482.338 59.84 482.018 60.448C481.708 61.0453 481.554 61.7173 481.554 62.464C481.554 63.2853 481.794 63.9253 482.274 64.384C482.764 64.8427 483.447 65.072 484.322 65.072ZM499.977 57.584L498.281 66H497.145L498.617 58.592H494.601L494.089 60.672C493.758 61.952 493.438 62.9867 493.129 63.776C492.819 64.5547 492.467 65.1413 492.073 65.536C491.689 65.92 491.235 66.112 490.713 66.112C490.499 66.112 490.222 66.0693 489.881 65.984L490.153 65.008C490.345 65.0507 490.473 65.072 490.537 65.072C491.081 65.072 491.539 64.7147 491.913 64C492.297 63.2747 492.686 62.128 493.081 60.56L493.817 57.584H499.977ZM506.118 60.544C508.006 60.544 508.95 61.296 508.95 62.8C508.95 63.44 508.785 64.0053 508.454 64.496C508.134 64.976 507.676 65.3493 507.078 65.616C506.492 65.872 505.809 66 505.03 66H501.51L503.19 57.616H504.326L503.75 60.544H506.118ZM505.03 65.136C505.862 65.136 506.534 64.9333 507.046 64.528C507.558 64.112 507.814 63.568 507.814 62.896C507.814 62.3947 507.644 62.0213 507.302 61.776C506.972 61.52 506.465 61.392 505.782 61.392H503.574L502.838 65.136H505.03ZM512.175 57.584H513.311L512.575 61.312H517.855L518.607 57.584H519.743L518.063 66H516.927L517.663 62.288H512.383L511.631 66H510.495L512.175 57.584ZM525.132 66.08C524.364 66.08 523.692 65.936 523.116 65.648C522.54 65.3493 522.092 64.9333 521.772 64.4C521.462 63.856 521.308 63.2267 521.308 62.512C521.308 61.5627 521.516 60.7093 521.932 59.952C522.348 59.1947 522.924 58.6027 523.66 58.176C524.406 57.7387 525.244 57.52 526.172 57.52C527.345 57.52 528.273 57.84 528.956 58.48C529.649 59.12 529.996 59.984 529.996 61.072C529.996 62.0213 529.788 62.88 529.372 63.648C528.956 64.4053 528.374 65.0027 527.628 65.44C526.892 65.8667 526.06 66.08 525.132 66.08ZM525.212 65.072C525.905 65.072 526.529 64.9067 527.084 64.576C527.638 64.2347 528.07 63.7653 528.38 63.168C528.7 62.56 528.86 61.8827 528.86 61.136C528.86 60.3147 528.614 59.6747 528.124 59.216C527.644 58.7467 526.966 58.512 526.092 58.512C525.398 58.512 524.774 58.6827 524.22 59.024C523.665 59.3653 523.228 59.84 522.908 60.448C522.598 61.0453 522.444 61.7173 522.444 62.464C522.444 63.2853 522.684 63.9253 523.164 64.384C523.654 64.8427 524.337 65.072 525.212 65.072ZM542.864 65.008H544.176L543.584 68.032H542.512L542.912 66H535.376L534.976 68.032H533.904L534.496 65.008H534.928C535.494 64.976 535.968 64.5493 536.352 63.728C536.736 62.9067 537.11 61.7813 537.472 60.352L538.144 57.584H544.336L542.864 65.008ZM538.496 60.512C538.187 61.7387 537.888 62.72 537.6 63.456C537.312 64.192 536.955 64.7093 536.528 65.008H541.728L543.008 58.592H538.96L538.496 60.512ZM554.742 57.584L553.046 66H551.91L553.382 58.592H549.366L548.854 60.672C548.524 61.952 548.204 62.9867 547.894 63.776C547.585 64.5547 547.233 65.1413 546.838 65.536C546.454 65.92 546.001 66.112 545.478 66.112C545.265 66.112 544.988 66.0693 544.646 65.984L544.918 65.008C545.11 65.0507 545.238 65.072 545.302 65.072C545.846 65.072 546.305 64.7147 546.678 64C547.062 63.2747 547.452 62.128 547.846 60.56L548.582 57.584H554.742ZM564.436 57.584L562.772 66H561.732L562.292 63.168H559.7H559.396L556.884 66H555.588L558.34 62.992C557.241 62.6613 556.692 61.9307 556.692 60.8C556.692 59.7973 557.065 59.0133 557.812 58.448C558.558 57.872 559.577 57.584 560.868 57.584H564.436ZM563.204 58.576H560.788C559.86 58.576 559.14 58.768 558.628 59.152C558.116 59.536 557.86 60.08 557.86 60.784C557.86 61.8187 558.532 62.336 559.876 62.336H562.468L563.204 58.576ZM123.43 81.584L121.734 90H120.598L122.07 82.592H118.054L117.542 84.672C117.211 85.952 116.891 86.9867 116.582 87.776C116.273 88.5547 115.921 89.1413 115.526 89.536C115.142 89.92 114.689 90.112 114.166 90.112C113.953 90.112 113.675 90.0693 113.334 89.984L113.606 89.008C113.798 89.0507 113.926 89.072 113.99 89.072C114.534 89.072 114.993 88.7147 115.366 88C115.75 87.2747 116.139 86.128 116.534 84.56L117.27 81.584H123.43ZM133.603 81.52C134.745 81.52 135.657 81.84 136.339 82.48C137.022 83.12 137.363 83.9787 137.363 85.056C137.363 86.0053 137.155 86.864 136.739 87.632C136.334 88.3893 135.763 88.9867 135.027 89.424C134.291 89.8613 133.465 90.08 132.547 90.08C131.79 90.08 131.129 89.936 130.563 89.648C129.998 89.3493 129.561 88.9333 129.251 88.4C128.942 87.856 128.787 87.232 128.787 86.528V86.256H126.867L126.115 90H124.979L126.659 81.584H127.795L127.075 85.216H128.931C129.102 84.4907 129.406 83.8507 129.843 83.296C130.291 82.7307 130.835 82.2933 131.475 81.984C132.126 81.6747 132.835 81.52 133.603 81.52ZM132.643 89.072C133.326 89.072 133.934 88.9067 134.467 88.576C135.011 88.2347 135.438 87.7653 135.747 87.168C136.057 86.56 136.211 85.8773 136.211 85.12C136.211 84.2987 135.977 83.6587 135.507 83.2C135.038 82.7413 134.377 82.512 133.523 82.512C132.841 82.512 132.227 82.6827 131.683 83.024C131.139 83.3653 130.713 83.84 130.403 84.448C130.094 85.0453 129.939 85.7227 129.939 86.48C129.939 87.3013 130.174 87.9413 130.643 88.4C131.113 88.848 131.779 89.072 132.643 89.072ZM144.612 82.032C145.678 82.032 146.51 82.3307 147.108 82.928C147.716 83.5147 148.02 84.3253 148.02 85.36C148.02 86.256 147.806 87.0667 147.38 87.792C146.953 88.5173 146.366 89.088 145.62 89.504C144.873 89.92 144.036 90.128 143.108 90.128C141.902 90.128 140.964 89.7707 140.292 89.056C139.63 88.3413 139.3 87.3173 139.3 85.984C139.3 84.8213 139.534 83.7333 140.004 82.72C140.473 81.7067 141.124 80.8533 141.956 80.16C142.798 79.4667 143.764 79.0027 144.852 78.768L148.756 77.952L148.788 78.944L145.108 79.712C143.988 79.9467 143.044 80.4373 142.276 81.184C141.518 81.92 140.98 82.8587 140.66 84C141.161 83.36 141.742 82.8747 142.404 82.544C143.076 82.2027 143.812 82.032 144.612 82.032ZM143.172 89.232C143.844 89.232 144.457 89.072 145.012 88.752C145.566 88.4213 146.004 87.9787 146.324 87.424C146.644 86.8587 146.804 86.2347 146.804 85.552C146.804 84.752 146.58 84.1387 146.132 83.712C145.694 83.2747 145.065 83.056 144.244 83.056C143.593 83.056 142.969 83.2107 142.372 83.52C141.785 83.8293 141.31 84.24 140.948 84.752C140.596 85.2533 140.42 85.7813 140.42 86.336C140.42 87.232 140.665 87.9413 141.156 88.464C141.646 88.976 142.318 89.232 143.172 89.232ZM153.444 90.08C152.676 90.08 152.004 89.936 151.428 89.648C150.852 89.3493 150.404 88.9333 150.084 88.4C149.775 87.856 149.62 87.2267 149.62 86.512C149.62 85.5627 149.828 84.7093 150.244 83.952C150.66 83.1947 151.236 82.6027 151.972 82.176C152.719 81.7387 153.556 81.52 154.484 81.52C155.658 81.52 156.586 81.84 157.268 82.48C157.962 83.12 158.308 83.984 158.308 85.072C158.308 86.0213 158.1 86.88 157.684 87.648C157.268 88.4053 156.687 89.0027 155.94 89.44C155.204 89.8667 154.372 90.08 153.444 90.08ZM153.524 89.072C154.218 89.072 154.842 88.9067 155.396 88.576C155.951 88.2347 156.383 87.7653 156.692 87.168C157.012 86.56 157.172 85.8827 157.172 85.136C157.172 84.3147 156.927 83.6747 156.436 83.216C155.956 82.7467 155.279 82.512 154.404 82.512C153.711 82.512 153.087 82.6827 152.532 83.024C151.978 83.3653 151.54 83.84 151.22 84.448C150.911 85.0453 150.756 85.7173 150.756 86.464C150.756 87.2853 150.996 87.9253 151.476 88.384C151.967 88.8427 152.65 89.072 153.524 89.072ZM167.325 82.592H162.477L161.021 90H159.885L161.565 81.584H167.533L167.325 82.592ZM170.944 90.08C170.176 90.08 169.504 89.936 168.928 89.648C168.352 89.3493 167.904 88.9333 167.584 88.4C167.275 87.856 167.12 87.2267 167.12 86.512C167.12 85.5627 167.328 84.7093 167.744 83.952C168.16 83.1947 168.736 82.6027 169.472 82.176C170.219 81.7387 171.056 81.52 171.984 81.52C173.158 81.52 174.086 81.84 174.768 82.48C175.462 83.12 175.808 83.984 175.808 85.072C175.808 86.0213 175.6 86.88 175.184 87.648C174.768 88.4053 174.187 89.0027 173.44 89.44C172.704 89.8667 171.872 90.08 170.944 90.08ZM171.024 89.072C171.718 89.072 172.342 88.9067 172.896 88.576C173.451 88.2347 173.883 87.7653 174.192 87.168C174.512 86.56 174.672 85.8827 174.672 85.136C174.672 84.3147 174.427 83.6747 173.936 83.216C173.456 82.7467 172.779 82.512 171.904 82.512C171.211 82.512 170.587 82.6827 170.032 83.024C169.478 83.3653 169.04 83.84 168.72 84.448C168.411 85.0453 168.256 85.7173 168.256 86.464C168.256 87.2853 168.496 87.9253 168.976 88.384C169.467 88.8427 170.15 89.072 171.024 89.072ZM189.605 81.584L187.925 90H186.789L187.477 86.528C186.453 86.9333 185.482 87.136 184.565 87.136C183.679 87.136 182.986 86.96 182.485 86.608C181.994 86.2453 181.749 85.7173 181.749 85.024C181.749 84.8427 181.775 84.608 181.829 84.32L182.373 81.584H183.509L182.965 84.336C182.933 84.496 182.917 84.6507 182.917 84.8C182.917 85.2693 183.082 85.6213 183.413 85.856C183.743 86.0907 184.207 86.208 184.805 86.208C185.658 86.208 186.618 85.984 187.685 85.536L188.469 81.584H189.605ZM192.319 86.112C192.309 86.1867 192.303 86.2987 192.303 86.448C192.303 87.3013 192.543 87.952 193.023 88.4C193.514 88.848 194.239 89.072 195.199 89.072C195.754 89.072 196.271 88.9813 196.751 88.8C197.242 88.608 197.642 88.3467 197.951 88.016L198.463 88.832C198.069 89.2267 197.573 89.536 196.975 89.76C196.389 89.9733 195.765 90.08 195.103 90.08C193.887 90.08 192.927 89.76 192.223 89.12C191.53 88.48 191.183 87.6053 191.183 86.496C191.183 85.5573 191.381 84.7093 191.775 83.952C192.181 83.1947 192.735 82.6027 193.439 82.176C194.154 81.7387 194.954 81.52 195.839 81.52C196.959 81.52 197.85 81.84 198.511 82.48C199.173 83.1093 199.503 83.9787 199.503 85.088C199.503 85.3973 199.466 85.7387 199.391 86.112H192.319ZM195.807 82.48C194.965 82.48 194.245 82.7307 193.647 83.232C193.05 83.7333 192.645 84.4107 192.431 85.264H198.431C198.442 85.1893 198.447 85.088 198.447 84.96C198.447 84.1707 198.207 83.5627 197.727 83.136C197.247 82.6987 196.607 82.48 195.807 82.48ZM209.508 81.584L207.812 90H206.676L208.148 82.592H204.132L203.62 84.672C203.289 85.952 202.969 86.9867 202.66 87.776C202.351 88.5547 201.999 89.1413 201.604 89.536C201.22 89.92 200.767 90.112 200.244 90.112C200.031 90.112 199.753 90.0693 199.412 89.984L199.684 89.008C199.876 89.0507 200.004 89.072 200.068 89.072C200.612 89.072 201.071 88.7147 201.444 88C201.828 87.2747 202.217 86.128 202.612 84.56L203.348 81.584H209.508ZM214.897 90.08C214.129 90.08 213.457 89.936 212.881 89.648C212.305 89.3493 211.857 88.9333 211.537 88.4C211.228 87.856 211.073 87.2267 211.073 86.512C211.073 85.5627 211.281 84.7093 211.697 83.952C212.113 83.1947 212.689 82.6027 213.425 82.176C214.172 81.7387 215.009 81.52 215.937 81.52C217.111 81.52 218.039 81.84 218.721 82.48C219.415 83.12 219.761 83.984 219.761 85.072C219.761 86.0213 219.553 86.88 219.137 87.648C218.721 88.4053 218.14 89.0027 217.393 89.44C216.657 89.8667 215.825 90.08 214.897 90.08ZM214.977 89.072C215.671 89.072 216.295 88.9067 216.849 88.576C217.404 88.2347 217.836 87.7653 218.145 87.168C218.465 86.56 218.625 85.8827 218.625 85.136C218.625 84.3147 218.38 83.6747 217.889 83.216C217.409 82.7467 216.732 82.512 215.857 82.512C215.164 82.512 214.54 82.6827 213.985 83.024C213.431 83.3653 212.993 83.84 212.673 84.448C212.364 85.0453 212.209 85.7173 212.209 86.464C212.209 87.2853 212.449 87.9253 212.929 88.384C213.42 88.8427 214.103 89.072 214.977 89.072ZM227.53 85.664C228.458 85.888 228.922 86.4587 228.922 87.376C228.922 88.1973 228.592 88.8427 227.93 89.312C227.28 89.7707 226.378 90 225.226 90H221.338L223.034 81.584H226.698C227.584 81.584 228.256 81.744 228.714 82.064C229.173 82.384 229.402 82.848 229.402 83.456C229.402 83.9893 229.237 84.448 228.906 84.832C228.576 85.216 228.117 85.4933 227.53 85.664ZM223.386 85.328H225.898C226.602 85.328 227.168 85.1733 227.594 84.864C228.032 84.5547 228.25 84.1493 228.25 83.648C228.25 82.8693 227.664 82.48 226.49 82.48H223.962L223.386 85.328ZM225.29 89.104C226.08 89.104 226.693 88.9493 227.13 88.64C227.578 88.3307 227.802 87.8987 227.802 87.344C227.802 86.928 227.664 86.6293 227.386 86.448C227.12 86.2667 226.672 86.176 226.042 86.176H223.226L222.634 89.104H225.29ZM232.257 86.112C232.246 86.1867 232.241 86.2987 232.241 86.448C232.241 87.3013 232.481 87.952 232.961 88.4C233.451 88.848 234.177 89.072 235.137 89.072C235.691 89.072 236.209 88.9813 236.689 88.8C237.179 88.608 237.579 88.3467 237.889 88.016L238.401 88.832C238.006 89.2267 237.51 89.536 236.913 89.76C236.326 89.9733 235.702 90.08 235.041 90.08C233.825 90.08 232.865 89.76 232.161 89.12C231.467 88.48 231.121 87.6053 231.121 86.496C231.121 85.5573 231.318 84.7093 231.713 83.952C232.118 83.1947 232.673 82.6027 233.377 82.176C234.091 81.7387 234.891 81.52 235.777 81.52C236.897 81.52 237.787 81.84 238.449 82.48C239.11 83.1093 239.441 83.9787 239.441 85.088C239.441 85.3973 239.403 85.7387 239.329 86.112H232.257ZM235.745 82.48C234.902 82.48 234.182 82.7307 233.585 83.232C232.987 83.7333 232.582 84.4107 232.369 85.264H238.369C238.379 85.1893 238.385 85.088 238.385 84.96C238.385 84.1707 238.145 83.5627 237.665 83.136C237.185 82.6987 236.545 82.48 235.745 82.48ZM245.809 85.728L248.513 90H247.217L244.913 86.256H242.929L242.177 90H241.041L242.737 81.584H243.873L243.121 85.28H244.993L248.721 81.584H250.001L245.809 85.728ZM259.498 81.584L257.818 90H256.73L257.002 88.672C256.597 89.12 256.117 89.4667 255.562 89.712C255.008 89.9573 254.394 90.08 253.722 90.08C253.008 90.08 252.373 89.936 251.818 89.648C251.264 89.36 250.832 88.9493 250.522 88.416C250.213 87.872 250.058 87.2373 250.058 86.512C250.058 85.5627 250.261 84.7093 250.666 83.952C251.082 83.1947 251.653 82.6027 252.378 82.176C253.104 81.7387 253.914 81.52 254.81 81.52C255.61 81.52 256.282 81.68 256.826 82C257.37 82.3093 257.765 82.7573 258.01 83.344L258.362 81.584H259.498ZM253.962 89.072C254.656 89.072 255.28 88.9067 255.834 88.576C256.389 88.2347 256.821 87.7653 257.13 87.168C257.45 86.56 257.61 85.8827 257.61 85.136C257.61 84.3147 257.365 83.6747 256.874 83.216C256.394 82.7467 255.717 82.512 254.842 82.512C254.149 82.512 253.525 82.6827 252.97 83.024C252.416 83.3653 251.978 83.84 251.658 84.448C251.349 85.0453 251.194 85.7173 251.194 86.464C251.194 87.2853 251.434 87.9253 251.914 88.384C252.405 88.8427 253.088 89.072 253.962 89.072ZM261.329 88.336C261.564 88.336 261.756 88.416 261.905 88.576C262.065 88.736 262.145 88.9333 262.145 89.168C262.145 89.3067 262.119 89.4347 262.065 89.552C262.023 89.6693 261.948 89.824 261.841 90.016L260.625 92.336H259.857L260.881 89.984C260.743 89.92 260.631 89.824 260.545 89.696C260.471 89.5573 260.433 89.408 260.433 89.248C260.433 88.992 260.519 88.7787 260.689 88.608C260.871 88.4267 261.084 88.336 261.329 88.336ZM270.316 81.584H271.452L270.092 88.384L277.004 81.584H278.092L276.412 90H275.244L276.636 83.2L269.724 90H268.62L270.316 81.584ZM287.743 90.08C286.953 90.08 286.265 89.936 285.679 89.648C285.092 89.3493 284.639 88.9333 284.319 88.4C284.009 87.856 283.855 87.2267 283.855 86.512C283.855 85.5627 284.063 84.7093 284.479 83.952C284.895 83.1947 285.476 82.6027 286.223 82.176C286.969 81.7387 287.812 81.52 288.751 81.52C289.529 81.52 290.196 81.664 290.751 81.952C291.316 82.2293 291.753 82.6453 292.063 83.2L291.103 83.76C290.623 82.928 289.807 82.512 288.655 82.512C287.961 82.512 287.332 82.6827 286.767 83.024C286.212 83.3653 285.775 83.8347 285.455 84.432C285.145 85.0293 284.991 85.7067 284.991 86.464C284.991 87.2853 285.231 87.9253 285.711 88.384C286.201 88.8427 286.895 89.072 287.791 89.072C288.335 89.072 288.836 88.9707 289.295 88.768C289.764 88.5547 290.148 88.2507 290.447 87.856L291.263 88.48C290.889 88.9813 290.388 89.376 289.759 89.664C289.14 89.9413 288.468 90.08 287.743 90.08ZM300.293 82.592H297.093L295.621 90H294.485L295.957 82.592H292.789L292.981 81.584H300.501L300.293 82.592ZM306.24 81.52C306.954 81.52 307.589 81.664 308.144 81.952C308.709 82.24 309.146 82.6507 309.456 83.184C309.765 83.7173 309.92 84.3467 309.92 85.072C309.92 86.0213 309.712 86.88 309.296 87.648C308.89 88.4053 308.325 89.0027 307.6 89.44C306.874 89.8667 306.058 90.08 305.152 90.08C304.352 90.08 303.68 89.9253 303.136 89.616C302.592 89.296 302.197 88.8373 301.952 88.24L300.992 93.104H299.856L302.144 81.584H303.232L302.96 82.928C303.365 82.4693 303.845 82.1227 304.4 81.888C304.954 81.6427 305.568 81.52 306.24 81.52ZM305.136 89.072C305.829 89.072 306.448 88.9067 306.992 88.576C307.546 88.2347 307.978 87.7653 308.288 87.168C308.608 86.5707 308.768 85.8933 308.768 85.136C308.768 84.3147 308.522 83.6747 308.032 83.216C307.552 82.7467 306.874 82.512 306 82.512C305.306 82.512 304.682 82.6827 304.128 83.024C303.584 83.3547 303.152 83.824 302.832 84.432C302.522 85.0293 302.368 85.7067 302.368 86.464C302.368 87.2853 302.608 87.9253 303.088 88.384C303.578 88.8427 304.261 89.072 305.136 89.072ZM312.679 86.112C312.668 86.1867 312.663 86.2987 312.663 86.448C312.663 87.3013 312.903 87.952 313.383 88.4C313.873 88.848 314.599 89.072 315.559 89.072C316.113 89.072 316.631 88.9813 317.111 88.8C317.601 88.608 318.001 88.3467 318.311 88.016L318.823 88.832C318.428 89.2267 317.932 89.536 317.335 89.76C316.748 89.9733 316.124 90.08 315.463 90.08C314.247 90.08 313.287 89.76 312.583 89.12C311.889 88.48 311.543 87.6053 311.543 86.496C311.543 85.5573 311.74 84.7093 312.135 83.952C312.54 83.1947 313.095 82.6027 313.799 82.176C314.513 81.7387 315.313 81.52 316.199 81.52C317.319 81.52 318.209 81.84 318.871 82.48C319.532 83.1093 319.863 83.9787 319.863 85.088C319.863 85.3973 319.825 85.7387 319.751 86.112H312.679ZM316.167 82.48C315.324 82.48 314.604 82.7307 314.007 83.232C313.409 83.7333 313.004 84.4107 312.791 85.264H318.791C318.801 85.1893 318.807 85.088 318.807 84.96C318.807 84.1707 318.567 83.5627 318.087 83.136C317.607 82.6987 316.967 82.48 316.167 82.48ZM332.551 81.584L330.871 90H329.831L331.159 83.344L326.631 88.976H326.119L323.847 83.28L322.503 90H321.463L323.143 81.584H324.279L326.631 87.648L331.479 81.584H332.551ZM335.784 81.584H336.92L335.56 88.384L342.472 81.584H343.56L341.88 90H340.712L342.104 83.2L335.192 90H334.088L335.784 81.584ZM356.192 81.584L354.512 90H353.472L354.8 83.344L350.272 88.976H349.76L347.488 83.28L346.144 90H345.104L346.784 81.584H347.92L350.272 87.648L355.12 81.584H356.192ZM361.649 90.08C360.86 90.08 360.172 89.936 359.585 89.648C358.998 89.3493 358.545 88.9333 358.225 88.4C357.916 87.856 357.761 87.2267 357.761 86.512C357.761 85.5627 357.969 84.7093 358.385 83.952C358.801 83.1947 359.382 82.6027 360.129 82.176C360.876 81.7387 361.718 81.52 362.657 81.52C363.436 81.52 364.102 81.664 364.657 81.952C365.222 82.2293 365.66 82.6453 365.969 83.2L365.009 83.76C364.529 82.928 363.713 82.512 362.561 82.512C361.868 82.512 361.238 82.6827 360.673 83.024C360.118 83.3653 359.681 83.8347 359.361 84.432C359.052 85.0293 358.897 85.7067 358.897 86.464C358.897 87.2853 359.137 87.9253 359.617 88.384C360.108 88.8427 360.801 89.072 361.697 89.072C362.241 89.072 362.742 88.9707 363.201 88.768C363.67 88.5547 364.054 88.2507 364.353 87.856L365.169 88.48C364.796 88.9813 364.294 89.376 363.665 89.664C363.046 89.9413 362.374 90.08 361.649 90.08ZM374.826 81.584L373.162 90H372.122L372.682 87.168H370.09H369.786L367.274 90H365.978L368.73 86.992C367.632 86.6613 367.082 85.9307 367.082 84.8C367.082 83.7973 367.456 83.0133 368.202 82.448C368.949 81.872 369.968 81.584 371.258 81.584H374.826ZM373.594 82.576H371.178C370.25 82.576 369.53 82.768 369.018 83.152C368.506 83.536 368.25 84.08 368.25 84.784C368.25 85.8187 368.922 86.336 370.266 86.336H372.858L373.594 82.576ZM384.493 90.08C383.703 90.08 383.015 89.936 382.429 89.648C381.842 89.3493 381.389 88.9333 381.069 88.4C380.759 87.856 380.605 87.2267 380.605 86.512C380.605 85.5627 380.813 84.7093 381.229 83.952C381.645 83.1947 382.226 82.6027 382.973 82.176C383.719 81.7387 384.562 81.52 385.501 81.52C386.279 81.52 386.946 81.664 387.501 81.952C388.066 82.2293 388.503 82.6453 388.813 83.2L387.853 83.76C387.373 82.928 386.557 82.512 385.405 82.512C384.711 82.512 384.082 82.6827 383.517 83.024C382.962 83.3653 382.525 83.8347 382.205 84.432C381.895 85.0293 381.741 85.7067 381.741 86.464C381.741 87.2853 381.981 87.9253 382.461 88.384C382.951 88.8427 383.645 89.072 384.541 89.072C385.085 89.072 385.586 88.9707 386.045 88.768C386.514 88.5547 386.898 88.2507 387.197 87.856L388.013 88.48C387.639 88.9813 387.138 89.376 386.509 89.664C385.89 89.9413 385.218 90.08 384.493 90.08ZM396.614 89.008H397.926L397.334 92.032H396.262L396.662 90H389.126L388.726 92.032H387.654L388.246 89.008H388.678C389.244 88.976 389.718 88.5493 390.102 87.728C390.486 86.9067 390.86 85.7813 391.222 84.352L391.894 81.584H398.086L396.614 89.008ZM392.246 84.512C391.937 85.7387 391.638 86.72 391.35 87.456C391.062 88.192 390.705 88.7093 390.278 89.008H395.478L396.758 82.592H392.71L392.246 84.512ZM401.1 86.112C401.09 86.1867 401.084 86.2987 401.084 86.448C401.084 87.3013 401.324 87.952 401.804 88.4C402.295 88.848 403.02 89.072 403.98 89.072C404.535 89.072 405.052 88.9813 405.532 88.8C406.023 88.608 406.423 88.3467 406.732 88.016L407.244 88.832C406.85 89.2267 406.354 89.536 405.756 89.76C405.17 89.9733 404.546 90.08 403.884 90.08C402.668 90.08 401.708 89.76 401.004 89.12C400.311 88.48 399.964 87.6053 399.964 86.496C399.964 85.5573 400.162 84.7093 400.556 83.952C400.962 83.1947 401.516 82.6027 402.22 82.176C402.935 81.7387 403.735 81.52 404.62 81.52C405.74 81.52 406.631 81.84 407.292 82.48C407.954 83.1093 408.284 83.9787 408.284 85.088C408.284 85.3973 408.247 85.7387 408.172 86.112H401.1ZM404.588 82.48C403.746 82.48 403.026 82.7307 402.428 83.232C401.831 83.7333 401.426 84.4107 401.212 85.264H407.212C407.223 85.1893 407.228 85.088 407.228 84.96C407.228 84.1707 406.988 83.5627 406.508 83.136C406.028 82.6987 405.388 82.48 404.588 82.48ZM418.289 81.584L416.593 90H415.457L416.929 82.592H412.913L412.401 84.672C412.071 85.952 411.751 86.9867 411.441 87.776C411.132 88.5547 410.78 89.1413 410.385 89.536C410.001 89.92 409.548 90.112 409.025 90.112C408.812 90.112 408.535 90.0693 408.193 89.984L408.465 89.008C408.657 89.0507 408.785 89.072 408.849 89.072C409.393 89.072 409.852 88.7147 410.225 88C410.609 87.2747 410.999 86.128 411.393 84.56L412.129 81.584H418.289ZM429.311 81.584L427.631 90H426.543L426.815 88.672C426.409 89.12 425.929 89.4667 425.375 89.712C424.82 89.9573 424.207 90.08 423.535 90.08C422.82 90.08 422.185 89.936 421.631 89.648C421.076 89.36 420.644 88.9493 420.335 88.416C420.025 87.872 419.871 87.2373 419.871 86.512C419.871 85.5627 420.073 84.7093 420.479 83.952C420.895 83.1947 421.465 82.6027 422.191 82.176C422.916 81.7387 423.727 81.52 424.623 81.52C425.423 81.52 426.095 81.68 426.639 82C427.183 82.3093 427.577 82.7573 427.823 83.344L428.175 81.584H429.311ZM423.775 89.072C424.468 89.072 425.092 88.9067 425.647 88.576C426.201 88.2347 426.633 87.7653 426.943 87.168C427.263 86.56 427.423 85.8827 427.423 85.136C427.423 84.3147 427.177 83.6747 426.687 83.216C426.207 82.7467 425.529 82.512 424.655 82.512C423.961 82.512 423.337 82.6827 422.783 83.024C422.228 83.3653 421.791 83.84 421.471 84.448C421.161 85.0453 421.007 85.7173 421.007 86.464C421.007 87.2853 421.247 87.9253 421.727 88.384C422.217 88.8427 422.9 89.072 423.775 89.072ZM438.262 82.592H435.062L433.59 90H432.454L433.926 82.592H430.758L430.95 81.584H438.47L438.262 82.592ZM443.024 84.544C444.912 84.544 445.856 85.296 445.856 86.8C445.856 87.44 445.691 88.0053 445.36 88.496C445.04 88.976 444.582 89.3493 443.984 89.616C443.398 89.872 442.715 90 441.936 90H438.416L440.096 81.616H441.232L440.656 84.544H443.024ZM441.936 89.136C442.768 89.136 443.44 88.9333 443.952 88.528C444.464 88.112 444.72 87.568 444.72 86.896C444.72 86.3947 444.55 86.0213 444.208 85.776C443.878 85.52 443.371 85.392 442.688 85.392H440.48L439.744 89.136H441.936ZM460.82 81.584L459.14 90H458.004L459.46 82.592H454.18L452.724 90H451.588L453.268 81.584H460.82ZM466.274 90.08C465.485 90.08 464.797 89.936 464.21 89.648C463.623 89.3493 463.17 88.9333 462.85 88.4C462.541 87.856 462.386 87.2267 462.386 86.512C462.386 85.5627 462.594 84.7093 463.01 83.952C463.426 83.1947 464.007 82.6027 464.754 82.176C465.501 81.7387 466.343 81.52 467.282 81.52C468.061 81.52 468.727 81.664 469.282 81.952C469.847 82.2293 470.285 82.6453 470.594 83.2L469.634 83.76C469.154 82.928 468.338 82.512 467.186 82.512C466.493 82.512 465.863 82.6827 465.298 83.024C464.743 83.3653 464.306 83.8347 463.986 84.432C463.677 85.0293 463.522 85.7067 463.522 86.464C463.522 87.2853 463.762 87.9253 464.242 88.384C464.733 88.8427 465.426 89.072 466.322 89.072C466.866 89.072 467.367 88.9707 467.826 88.768C468.295 88.5547 468.679 88.2507 468.978 87.856L469.794 88.48C469.421 88.9813 468.919 89.376 468.29 89.664C467.671 89.9413 466.999 90.08 466.274 90.08ZM473.269 81.584H474.405L473.045 88.384L479.957 81.584H481.045L479.365 90H478.197L479.589 83.2L472.677 90H471.573L473.269 81.584ZM486.652 85.728L489.132 90H487.916L485.916 86.496L482.54 90H481.196L485.436 85.648L483.1 81.584H484.3L486.188 84.88L489.356 81.584H490.668L486.652 85.728ZM494.569 90.08C493.801 90.08 493.129 89.936 492.553 89.648C491.977 89.3493 491.529 88.9333 491.209 88.4C490.9 87.856 490.745 87.2267 490.745 86.512C490.745 85.5627 490.953 84.7093 491.369 83.952C491.785 83.1947 492.361 82.6027 493.097 82.176C493.844 81.7387 494.681 81.52 495.609 81.52C496.783 81.52 497.711 81.84 498.393 82.48C499.087 83.12 499.433 83.984 499.433 85.072C499.433 86.0213 499.225 86.88 498.809 87.648C498.393 88.4053 497.812 89.0027 497.065 89.44C496.329 89.8667 495.497 90.08 494.569 90.08ZM494.649 89.072C495.343 89.072 495.967 88.9067 496.521 88.576C497.076 88.2347 497.508 87.7653 497.817 87.168C498.137 86.56 498.297 85.8827 498.297 85.136C498.297 84.3147 498.052 83.6747 497.561 83.216C497.081 82.7467 496.404 82.512 495.529 82.512C494.836 82.512 494.212 82.6827 493.657 83.024C493.103 83.3653 492.665 83.84 492.345 84.448C492.036 85.0453 491.881 85.7173 491.881 86.464C491.881 87.2853 492.121 87.9253 492.601 88.384C493.092 88.8427 493.775 89.072 494.649 89.072ZM508.106 82.592H504.906L503.434 90H502.298L503.77 82.592H500.602L500.794 81.584H508.314L508.106 82.592ZM509.054 86.112C509.043 86.1867 509.038 86.2987 509.038 86.448C509.038 87.3013 509.278 87.952 509.758 88.4C510.248 88.848 510.974 89.072 511.934 89.072C512.488 89.072 513.006 88.9813 513.486 88.8C513.976 88.608 514.376 88.3467 514.686 88.016L515.198 88.832C514.803 89.2267 514.307 89.536 513.71 89.76C513.123 89.9733 512.499 90.08 511.838 90.08C510.622 90.08 509.662 89.76 508.958 89.12C508.264 88.48 507.918 87.6053 507.918 86.496C507.918 85.5573 508.115 84.7093 508.51 83.952C508.915 83.1947 509.47 82.6027 510.174 82.176C510.888 81.7387 511.688 81.52 512.574 81.52C513.694 81.52 514.584 81.84 515.246 82.48C515.907 83.1093 516.238 83.9787 516.238 85.088C516.238 85.3973 516.2 85.7387 516.126 86.112H509.054ZM512.542 82.48C511.699 82.48 510.979 82.7307 510.382 83.232C509.784 83.7333 509.379 84.4107 509.166 85.264H515.166C515.176 85.1893 515.182 85.088 515.182 84.96C515.182 84.1707 514.942 83.5627 514.462 83.136C513.982 82.6987 513.342 82.48 512.542 82.48ZM523.63 81.52C524.345 81.52 524.98 81.664 525.534 81.952C526.1 82.24 526.537 82.6507 526.846 83.184C527.156 83.7173 527.31 84.3467 527.31 85.072C527.31 86.0213 527.102 86.88 526.686 87.648C526.281 88.4053 525.716 89.0027 524.99 89.44C524.265 89.8667 523.449 90.08 522.542 90.08C521.742 90.08 521.07 89.9253 520.526 89.616C519.982 89.296 519.588 88.8373 519.342 88.24L518.382 93.104H517.246L519.534 81.584H520.622L520.35 82.928C520.756 82.4693 521.236 82.1227 521.79 81.888C522.345 81.6427 522.958 81.52 523.63 81.52ZM522.526 89.072C523.22 89.072 523.838 88.9067 524.382 88.576C524.937 88.2347 525.369 87.7653 525.678 87.168C525.998 86.5707 526.158 85.8933 526.158 85.136C526.158 84.3147 525.913 83.6747 525.422 83.216C524.942 82.7467 524.265 82.512 523.39 82.512C522.697 82.512 522.073 82.6827 521.518 83.024C520.974 83.3547 520.542 83.824 520.222 84.432C519.913 85.0293 519.758 85.7067 519.758 86.464C519.758 87.2853 519.998 87.9253 520.478 88.384C520.969 88.8427 521.652 89.072 522.526 89.072ZM538.373 81.584L536.693 90H535.605L535.877 88.672C535.472 89.12 534.992 89.4667 534.437 89.712C533.883 89.9573 533.269 90.08 532.597 90.08C531.883 90.08 531.248 89.936 530.693 89.648C530.139 89.36 529.707 88.9493 529.397 88.416C529.088 87.872 528.933 87.2373 528.933 86.512C528.933 85.5627 529.136 84.7093 529.541 83.952C529.957 83.1947 530.528 82.6027 531.253 82.176C531.979 81.7387 532.789 81.52 533.685 81.52C534.485 81.52 535.157 81.68 535.701 82C536.245 82.3093 536.64 82.7573 536.885 83.344L537.237 81.584H538.373ZM532.837 89.072C533.531 89.072 534.155 88.9067 534.709 88.576C535.264 88.2347 535.696 87.7653 536.005 87.168C536.325 86.56 536.485 85.8827 536.485 85.136C536.485 84.3147 536.24 83.6747 535.749 83.216C535.269 82.7467 534.592 82.512 533.717 82.512C533.024 82.512 532.4 82.6827 531.845 83.024C531.291 83.3653 530.853 83.84 530.533 84.448C530.224 85.0453 530.069 85.7173 530.069 86.464C530.069 87.2853 530.309 87.9253 530.789 88.384C531.28 88.8427 531.963 89.072 532.837 89.072ZM549.148 81.584L547.468 90H546.332L547.788 82.592H542.508L541.052 90H539.916L541.596 81.584H549.148ZM552.378 81.584H553.514L552.154 88.384L559.066 81.584H560.154L558.474 90H557.306L558.698 83.2L551.786 90H550.682L552.378 81.584ZM570.338 81.52C571.479 81.52 572.391 81.84 573.074 82.48C573.756 83.12 574.098 83.9787 574.098 85.056C574.098 86.0053 573.89 86.864 573.474 87.632C573.068 88.3893 572.498 88.9867 571.762 89.424C571.026 89.8613 570.199 90.08 569.282 90.08C568.524 90.08 567.863 89.936 567.298 89.648C566.732 89.3493 566.295 88.9333 565.986 88.4C565.676 87.856 565.522 87.232 565.522 86.528V86.256H563.602L562.85 90H561.714L563.394 81.584H564.53L563.81 85.216H565.666C565.836 84.4907 566.14 83.8507 566.578 83.296C567.026 82.7307 567.57 82.2933 568.21 81.984C568.86 81.6747 569.57 81.52 570.338 81.52ZM569.378 89.072C570.06 89.072 570.668 88.9067 571.202 88.576C571.746 88.2347 572.172 87.7653 572.482 87.168C572.791 86.56 572.946 85.8773 572.946 85.12C572.946 84.2987 572.711 83.6587 572.242 83.2C571.772 82.7413 571.111 82.512 570.258 82.512C569.575 82.512 568.962 82.6827 568.418 83.024C567.874 83.3653 567.447 83.84 567.138 84.448C566.828 85.0453 566.674 85.7227 566.674 86.48C566.674 87.3013 566.908 87.9413 567.378 88.4C567.847 88.848 568.514 89.072 569.378 89.072ZM165.955 106.032C167.022 106.032 167.854 106.331 168.451 106.928C169.059 107.515 169.363 108.325 169.363 109.36C169.363 110.256 169.15 111.067 168.723 111.792C168.297 112.517 167.71 113.088 166.963 113.504C166.217 113.92 165.379 114.128 164.451 114.128C163.246 114.128 162.307 113.771 161.635 113.056C160.974 112.341 160.643 111.317 160.643 109.984C160.643 108.821 160.878 107.733 161.347 106.72C161.817 105.707 162.467 104.853 163.299 104.16C164.142 103.467 165.107 103.003 166.195 102.768L170.099 101.952L170.131 102.944L166.451 103.712C165.331 103.947 164.387 104.437 163.619 105.184C162.862 105.92 162.323 106.859 162.003 108C162.505 107.36 163.086 106.875 163.747 106.544C164.419 106.203 165.155 106.032 165.955 106.032ZM164.515 113.232C165.187 113.232 165.801 113.072 166.355 112.752C166.91 112.421 167.347 111.979 167.667 111.424C167.987 110.859 168.147 110.235 168.147 109.552C168.147 108.752 167.923 108.139 167.475 107.712C167.038 107.275 166.409 107.056 165.587 107.056C164.937 107.056 164.313 107.211 163.715 107.52C163.129 107.829 162.654 108.24 162.291 108.752C161.939 109.253 161.763 109.781 161.763 110.336C161.763 111.232 162.009 111.941 162.499 112.464C162.99 112.976 163.662 113.232 164.515 113.232ZM172.116 110.112C172.105 110.187 172.1 110.299 172.1 110.448C172.1 111.301 172.34 111.952 172.82 112.4C173.311 112.848 174.036 113.072 174.996 113.072C175.551 113.072 176.068 112.981 176.548 112.8C177.039 112.608 177.439 112.347 177.748 112.016L178.26 112.832C177.865 113.227 177.369 113.536 176.772 113.76C176.185 113.973 175.561 114.08 174.9 114.08C173.684 114.08 172.724 113.76 172.02 113.12C171.327 112.48 170.98 111.605 170.98 110.496C170.98 109.557 171.177 108.709 171.572 107.952C171.977 107.195 172.532 106.603 173.236 106.176C173.951 105.739 174.751 105.52 175.636 105.52C176.756 105.52 177.647 105.84 178.308 106.48C178.969 107.109 179.3 107.979 179.3 109.088C179.3 109.397 179.263 109.739 179.188 110.112H172.116ZM175.604 106.48C174.761 106.48 174.041 106.731 173.444 107.232C172.847 107.733 172.441 108.411 172.228 109.264H178.228C178.239 109.189 178.244 109.088 178.244 108.96C178.244 108.171 178.004 107.563 177.524 107.136C177.044 106.699 176.404 106.48 175.604 106.48ZM185.402 109.648C185.936 109.787 186.341 110.011 186.618 110.32C186.896 110.619 187.034 110.992 187.034 111.44C187.034 111.941 186.858 112.395 186.506 112.8C186.165 113.205 185.685 113.525 185.066 113.76C184.458 113.984 183.776 114.096 183.018 114.096C181.706 114.096 180.634 113.739 179.802 113.024L180.282 112.224C180.592 112.512 180.986 112.731 181.466 112.88C181.946 113.029 182.469 113.104 183.034 113.104C183.578 113.104 184.069 113.029 184.506 112.88C184.944 112.731 185.285 112.523 185.53 112.256C185.776 111.989 185.898 111.691 185.898 111.36C185.898 110.955 185.717 110.64 185.354 110.416C185.002 110.192 184.512 110.08 183.882 110.08H182.49L182.618 109.216H183.818C184.544 109.216 185.125 109.083 185.562 108.816C186.01 108.549 186.234 108.197 186.234 107.76C186.234 107.355 186.058 107.04 185.706 106.816C185.354 106.592 184.869 106.48 184.25 106.48C183.45 106.48 182.56 106.709 181.578 107.168L181.258 106.224C182.282 105.733 183.312 105.488 184.346 105.488C185.264 105.488 186 105.68 186.554 106.064C187.12 106.437 187.402 106.944 187.402 107.584C187.402 108.075 187.226 108.501 186.874 108.864C186.522 109.227 186.032 109.488 185.402 109.648ZM192.929 114.08C192.161 114.08 191.489 113.936 190.913 113.648C190.337 113.349 189.889 112.933 189.569 112.4C189.259 111.856 189.105 111.227 189.105 110.512C189.105 109.563 189.313 108.709 189.729 107.952C190.145 107.195 190.721 106.603 191.457 106.176C192.203 105.739 193.041 105.52 193.969 105.52C195.142 105.52 196.07 105.84 196.753 106.48C197.446 107.12 197.793 107.984 197.793 109.072C197.793 110.021 197.585 110.88 197.169 111.648C196.753 112.405 196.171 113.003 195.425 113.44C194.689 113.867 193.857 114.08 192.929 114.08ZM193.009 113.072C193.702 113.072 194.326 112.907 194.881 112.576C195.435 112.235 195.867 111.765 196.177 111.168C196.497 110.56 196.657 109.883 196.657 109.136C196.657 108.315 196.411 107.675 195.921 107.216C195.441 106.747 194.763 106.512 193.889 106.512C193.195 106.512 192.571 106.683 192.017 107.024C191.462 107.365 191.025 107.84 190.705 108.448C190.395 109.045 190.241 109.717 190.241 110.464C190.241 111.285 190.481 111.925 190.961 112.384C191.451 112.843 192.134 113.072 193.009 113.072ZM208.602 105.584L206.922 114H205.786L207.242 106.592H201.962L200.506 114H199.37L201.05 105.584H208.602ZM219.623 105.584L217.943 114H216.855L217.127 112.672C216.722 113.12 216.242 113.467 215.687 113.712C215.133 113.957 214.519 114.08 213.847 114.08C213.133 114.08 212.498 113.936 211.943 113.648C211.389 113.36 210.957 112.949 210.647 112.416C210.338 111.872 210.183 111.237 210.183 110.512C210.183 109.563 210.386 108.709 210.791 107.952C211.207 107.195 211.778 106.603 212.503 106.176C213.229 105.739 214.039 105.52 214.935 105.52C215.735 105.52 216.407 105.68 216.951 106C217.495 106.309 217.89 106.757 218.135 107.344L218.487 105.584H219.623ZM214.087 113.072C214.781 113.072 215.405 112.907 215.959 112.576C216.514 112.235 216.946 111.765 217.255 111.168C217.575 110.56 217.735 109.883 217.735 109.136C217.735 108.315 217.49 107.675 216.999 107.216C216.519 106.747 215.842 106.512 214.967 106.512C214.274 106.512 213.65 106.683 213.095 107.024C212.541 107.365 212.103 107.84 211.783 108.448C211.474 109.045 211.319 109.717 211.319 110.464C211.319 111.285 211.559 111.925 212.039 112.384C212.53 112.843 213.213 113.072 214.087 113.072ZM225.086 114.08C224.297 114.08 223.609 113.936 223.022 113.648C222.436 113.349 221.982 112.933 221.662 112.4C221.353 111.856 221.198 111.227 221.198 110.512C221.198 109.563 221.406 108.709 221.822 107.952C222.238 107.195 222.82 106.603 223.566 106.176C224.313 105.739 225.156 105.52 226.094 105.52C226.873 105.52 227.54 105.664 228.094 105.952C228.66 106.229 229.097 106.645 229.406 107.2L228.446 107.76C227.966 106.928 227.15 106.512 225.998 106.512C225.305 106.512 224.676 106.683 224.11 107.024C223.556 107.365 223.118 107.835 222.798 108.432C222.489 109.029 222.334 109.707 222.334 110.464C222.334 111.285 222.574 111.925 223.054 112.384C223.545 112.843 224.238 113.072 225.134 113.072C225.678 113.072 226.18 112.971 226.638 112.768C227.108 112.555 227.492 112.251 227.79 111.856L228.606 112.48C228.233 112.981 227.732 113.376 227.102 113.664C226.484 113.941 225.812 114.08 225.086 114.08ZM232.065 105.584H233.201L232.465 109.312H237.745L238.497 105.584H239.633L237.953 114H236.817L237.553 110.288H232.273L231.521 114H230.385L232.065 105.584ZM245.022 114.08C244.254 114.08 243.582 113.936 243.006 113.648C242.43 113.349 241.982 112.933 241.662 112.4C241.353 111.856 241.198 111.227 241.198 110.512C241.198 109.563 241.406 108.709 241.822 107.952C242.238 107.195 242.814 106.603 243.55 106.176C244.297 105.739 245.134 105.52 246.062 105.52C247.236 105.52 248.164 105.84 248.846 106.48C249.54 107.12 249.886 107.984 249.886 109.072C249.886 110.021 249.678 110.88 249.262 111.648C248.846 112.405 248.265 113.003 247.518 113.44C246.782 113.867 245.95 114.08 245.022 114.08ZM245.102 113.072C245.796 113.072 246.42 112.907 246.974 112.576C247.529 112.235 247.961 111.765 248.27 111.168C248.59 110.56 248.75 109.883 248.75 109.136C248.75 108.315 248.505 107.675 248.014 107.216C247.534 106.747 246.857 106.512 245.982 106.512C245.289 106.512 244.665 106.683 244.11 107.024C243.556 107.365 243.118 107.84 242.798 108.448C242.489 109.045 242.334 109.717 242.334 110.464C242.334 111.285 242.574 111.925 243.054 112.384C243.545 112.843 244.228 113.072 245.102 113.072ZM253.159 105.584H254.295L252.935 112.384L259.847 105.584H260.935L259.255 114H258.087L259.479 107.2L252.567 114H251.463L253.159 105.584ZM257.303 104.352C256.653 104.352 256.141 104.208 255.767 103.92C255.394 103.621 255.207 103.221 255.207 102.72C255.207 102.581 255.223 102.443 255.255 102.304H256.039C256.029 102.368 256.023 102.453 256.023 102.56C256.023 102.901 256.141 103.179 256.375 103.392C256.621 103.595 256.951 103.696 257.367 103.696C257.826 103.696 258.221 103.573 258.551 103.328C258.882 103.072 259.101 102.731 259.207 102.304H260.007C259.869 102.955 259.559 103.461 259.079 103.824C258.61 104.176 258.018 104.352 257.303 104.352ZM262.767 112.336C263.002 112.336 263.194 112.416 263.343 112.576C263.503 112.736 263.583 112.933 263.583 113.168C263.583 113.307 263.556 113.435 263.503 113.552C263.46 113.669 263.386 113.824 263.279 114.016L262.063 116.336H261.295L262.319 113.984C262.18 113.92 262.068 113.824 261.983 113.696C261.908 113.557 261.871 113.408 261.871 113.248C261.871 112.992 261.956 112.779 262.127 112.608C262.308 112.427 262.522 112.336 262.767 112.336ZM278.841 105.584L272.697 115.088C272.185 115.877 271.705 116.421 271.257 116.72C270.809 117.029 270.276 117.184 269.657 117.184C269.252 117.184 268.868 117.115 268.505 116.976C268.142 116.848 267.86 116.667 267.657 116.432L268.265 115.6C268.649 116.005 269.145 116.208 269.753 116.208C270.126 116.208 270.462 116.107 270.761 115.904C271.06 115.701 271.369 115.349 271.689 114.848L272.281 113.952L270.185 105.584H271.337L273.081 112.752L277.673 105.584H278.841ZM285.708 113.008H287.02L286.428 116.032H285.356L285.756 114H278.22L277.82 116.032H276.748L277.34 113.008H277.772C278.337 112.976 278.812 112.549 279.196 111.728C279.58 110.907 279.953 109.781 280.316 108.352L280.988 105.584H287.18L285.708 113.008ZM281.34 108.512C281.031 109.739 280.732 110.72 280.444 111.456C280.156 112.192 279.799 112.709 279.372 113.008H284.572L285.852 106.592H281.804L281.34 108.512ZM292.866 114.08C292.098 114.08 291.426 113.936 290.85 113.648C290.274 113.349 289.826 112.933 289.506 112.4C289.197 111.856 289.042 111.227 289.042 110.512C289.042 109.563 289.25 108.709 289.666 107.952C290.082 107.195 290.658 106.603 291.394 106.176C292.141 105.739 292.978 105.52 293.906 105.52C295.08 105.52 296.008 105.84 296.69 106.48C297.384 107.12 297.73 107.984 297.73 109.072C297.73 110.021 297.522 110.88 297.106 111.648C296.69 112.405 296.109 113.003 295.362 113.44C294.626 113.867 293.794 114.08 292.866 114.08ZM292.946 113.072C293.64 113.072 294.264 112.907 294.818 112.576C295.373 112.235 295.805 111.765 296.114 111.168C296.434 110.56 296.594 109.883 296.594 109.136C296.594 108.315 296.349 107.675 295.858 107.216C295.378 106.747 294.701 106.512 293.826 106.512C293.133 106.512 292.509 106.683 291.954 107.024C291.4 107.365 290.962 107.84 290.642 108.448C290.333 109.045 290.178 109.717 290.178 110.464C290.178 111.285 290.418 111.925 290.898 112.384C291.389 112.843 292.072 113.072 292.946 113.072ZM304.971 106.032C306.038 106.032 306.87 106.331 307.467 106.928C308.075 107.515 308.379 108.325 308.379 109.36C308.379 110.256 308.166 111.067 307.739 111.792C307.312 112.517 306.726 113.088 305.979 113.504C305.232 113.92 304.395 114.128 303.467 114.128C302.262 114.128 301.323 113.771 300.651 113.056C299.99 112.341 299.659 111.317 299.659 109.984C299.659 108.821 299.894 107.733 300.363 106.72C300.832 105.707 301.483 104.853 302.315 104.16C303.158 103.467 304.123 103.003 305.211 102.768L309.115 101.952L309.147 102.944L305.467 103.712C304.347 103.947 303.403 104.437 302.635 105.184C301.878 105.92 301.339 106.859 301.019 108C301.52 107.36 302.102 106.875 302.763 106.544C303.435 106.203 304.171 106.032 304.971 106.032ZM303.531 113.232C304.203 113.232 304.816 113.072 305.371 112.752C305.926 112.421 306.363 111.979 306.683 111.424C307.003 110.859 307.163 110.235 307.163 109.552C307.163 108.752 306.939 108.139 306.491 107.712C306.054 107.275 305.424 107.056 304.603 107.056C303.952 107.056 303.328 107.211 302.731 107.52C302.144 107.829 301.67 108.24 301.307 108.752C300.955 109.253 300.779 109.781 300.779 110.336C300.779 111.232 301.024 111.941 301.515 112.464C302.006 112.976 302.678 113.232 303.531 113.232ZM311.628 105.584H312.764L312.028 109.312H317.308L318.06 105.584H319.196L317.516 114H316.38L317.116 110.288H311.836L311.084 114H309.948L311.628 105.584ZM324.585 114.08C323.817 114.08 323.145 113.936 322.569 113.648C321.993 113.349 321.545 112.933 321.225 112.4C320.916 111.856 320.761 111.227 320.761 110.512C320.761 109.563 320.969 108.709 321.385 107.952C321.801 107.195 322.377 106.603 323.113 106.176C323.86 105.739 324.697 105.52 325.625 105.52C326.798 105.52 327.726 105.84 328.409 106.48C329.102 107.12 329.449 107.984 329.449 109.072C329.449 110.021 329.241 110.88 328.825 111.648C328.409 112.405 327.828 113.003 327.081 113.44C326.345 113.867 325.513 114.08 324.585 114.08ZM324.665 113.072C325.358 113.072 325.982 112.907 326.537 112.576C327.092 112.235 327.524 111.765 327.833 111.168C328.153 110.56 328.313 109.883 328.313 109.136C328.313 108.315 328.068 107.675 327.577 107.216C327.097 106.747 326.42 106.512 325.545 106.512C324.852 106.512 324.228 106.683 323.673 107.024C323.118 107.365 322.681 107.84 322.361 108.448C322.052 109.045 321.897 109.717 321.897 110.464C321.897 111.285 322.137 111.925 322.617 112.384C323.108 112.843 323.79 113.072 324.665 113.072ZM332.722 105.584H333.858L332.498 112.384L339.41 105.584H340.498L338.818 114H337.65L339.042 107.2L332.13 114H331.026L332.722 105.584ZM336.866 104.352C336.215 104.352 335.703 104.208 335.33 103.92C334.956 103.621 334.77 103.221 334.77 102.72C334.77 102.581 334.786 102.443 334.818 102.304H335.602C335.591 102.368 335.586 102.453 335.586 102.56C335.586 102.901 335.703 103.179 335.938 103.392C336.183 103.595 336.514 103.696 336.93 103.696C337.388 103.696 337.783 103.573 338.114 103.328C338.444 103.072 338.663 102.731 338.77 102.304H339.57C339.431 102.955 339.122 103.461 338.642 103.824C338.172 104.176 337.58 104.352 336.866 104.352ZM347.925 105.584H349.061L347.701 112.384L354.613 105.584H355.701L354.021 114H352.853L354.245 107.2L347.333 114H346.229L347.925 105.584ZM368.536 113.008H369.848L369.256 116.032H368.184L368.584 114H361.048L360.648 116.032H359.576L360.168 113.008H360.6C361.165 112.976 361.64 112.549 362.024 111.728C362.408 110.907 362.781 109.781 363.144 108.352L363.816 105.584H370.008L368.536 113.008ZM364.168 108.512C363.859 109.739 363.56 110.72 363.272 111.456C362.984 112.192 362.627 112.709 362.2 113.008H367.4L368.68 106.592H364.632L364.168 108.512ZM375.694 114.08C374.926 114.08 374.254 113.936 373.678 113.648C373.102 113.349 372.654 112.933 372.334 112.4C372.025 111.856 371.87 111.227 371.87 110.512C371.87 109.563 372.078 108.709 372.494 107.952C372.91 107.195 373.486 106.603 374.222 106.176C374.969 105.739 375.806 105.52 376.734 105.52C377.908 105.52 378.836 105.84 379.518 106.48C380.212 107.12 380.558 107.984 380.558 109.072C380.558 110.021 380.35 110.88 379.934 111.648C379.518 112.405 378.937 113.003 378.19 113.44C377.454 113.867 376.622 114.08 375.694 114.08ZM375.774 113.072C376.468 113.072 377.092 112.907 377.646 112.576C378.201 112.235 378.633 111.765 378.942 111.168C379.262 110.56 379.422 109.883 379.422 109.136C379.422 108.315 379.177 107.675 378.686 107.216C378.206 106.747 377.529 106.512 376.654 106.512C375.961 106.512 375.337 106.683 374.782 107.024C374.228 107.365 373.79 107.84 373.47 108.448C373.161 109.045 373.006 109.717 373.006 110.464C373.006 111.285 373.246 111.925 373.726 112.384C374.217 112.843 374.9 113.072 375.774 113.072ZM386.055 114.08C385.266 114.08 384.578 113.936 383.991 113.648C383.405 113.349 382.951 112.933 382.631 112.4C382.322 111.856 382.167 111.227 382.167 110.512C382.167 109.563 382.375 108.709 382.791 107.952C383.207 107.195 383.789 106.603 384.535 106.176C385.282 105.739 386.125 105.52 387.063 105.52C387.842 105.52 388.509 105.664 389.063 105.952C389.629 106.229 390.066 106.645 390.375 107.2L389.415 107.76C388.935 106.928 388.119 106.512 386.967 106.512C386.274 106.512 385.645 106.683 385.079 107.024C384.525 107.365 384.087 107.835 383.767 108.432C383.458 109.029 383.303 109.707 383.303 110.464C383.303 111.285 383.543 111.925 384.023 112.384C384.514 112.843 385.207 113.072 386.103 113.072C386.647 113.072 387.149 112.971 387.607 112.768C388.077 112.555 388.461 112.251 388.759 111.856L389.575 112.48C389.202 112.981 388.701 113.376 388.071 113.664C387.453 113.941 386.781 114.08 386.055 114.08ZM398.606 106.592H395.406L393.934 114H392.798L394.27 106.592H391.102L391.294 105.584H398.814L398.606 106.592ZM407.575 105.584L401.431 115.088C400.919 115.877 400.439 116.421 399.991 116.72C399.543 117.029 399.01 117.184 398.391 117.184C397.986 117.184 397.602 117.115 397.239 116.976C396.877 116.848 396.594 116.667 396.391 116.432L396.999 115.6C397.383 116.005 397.879 116.208 398.487 116.208C398.861 116.208 399.197 116.107 399.495 115.904C399.794 115.701 400.103 115.349 400.423 114.848L401.015 113.952L398.919 105.584H400.071L401.815 112.752L406.407 105.584H407.575ZM416.945 105.584L415.265 114H414.129L415.585 106.592H410.305L408.849 114H407.713L409.393 105.584H416.945ZM420.159 105.584H421.295L420.559 109.312H425.839L426.591 105.584H427.727L426.047 114H424.911L425.647 110.288H420.367L419.615 114H418.479L420.159 105.584ZM433.116 114.08C432.348 114.08 431.676 113.936 431.1 113.648C430.524 113.349 430.076 112.933 429.756 112.4C429.447 111.856 429.292 111.227 429.292 110.512C429.292 109.563 429.5 108.709 429.916 107.952C430.332 107.195 430.908 106.603 431.644 106.176C432.391 105.739 433.228 105.52 434.156 105.52C435.33 105.52 436.258 105.84 436.94 106.48C437.634 107.12 437.98 107.984 437.98 109.072C437.98 110.021 437.772 110.88 437.356 111.648C436.94 112.405 436.359 113.003 435.612 113.44C434.876 113.867 434.044 114.08 433.116 114.08ZM433.196 113.072C433.89 113.072 434.514 112.907 435.068 112.576C435.623 112.235 436.055 111.765 436.364 111.168C436.684 110.56 436.844 109.883 436.844 109.136C436.844 108.315 436.599 107.675 436.108 107.216C435.628 106.747 434.951 106.512 434.076 106.512C433.383 106.512 432.759 106.683 432.204 107.024C431.65 107.365 431.212 107.84 430.892 108.448C430.583 109.045 430.428 109.717 430.428 110.464C430.428 111.285 430.668 111.925 431.148 112.384C431.639 112.843 432.322 113.072 433.196 113.072ZM441.253 105.584H442.389L441.029 112.384L447.941 105.584H449.029L447.349 114H446.181L447.573 107.2L440.661 114H439.557L441.253 105.584ZM445.397 104.352C444.746 104.352 444.234 104.208 443.861 103.92C443.488 103.621 443.301 103.221 443.301 102.72C443.301 102.581 443.317 102.443 443.349 102.304H444.133C444.122 102.368 444.117 102.453 444.117 102.56C444.117 102.901 444.234 103.179 444.469 103.392C444.714 103.595 445.045 103.696 445.461 103.696C445.92 103.696 446.314 103.573 446.645 103.328C446.976 103.072 447.194 102.731 447.301 102.304H448.101C447.962 102.955 447.653 103.461 447.173 103.824C446.704 104.176 446.112 104.352 445.397 104.352ZM459.528 109.728L462.232 114H460.936L458.632 110.256H456.648L455.896 114H454.76L456.456 105.584H457.592L456.84 109.28H458.712L462.44 105.584H463.72L459.528 109.728ZM473.217 105.584L471.537 114H470.449L470.721 112.672C470.316 113.12 469.836 113.467 469.281 113.712C468.726 113.957 468.113 114.08 467.441 114.08C466.726 114.08 466.092 113.936 465.537 113.648C464.982 113.36 464.55 112.949 464.241 112.416C463.932 111.872 463.777 111.237 463.777 110.512C463.777 109.563 463.98 108.709 464.385 107.952C464.801 107.195 465.372 106.603 466.097 106.176C466.822 105.739 467.633 105.52 468.529 105.52C469.329 105.52 470.001 105.68 470.545 106C471.089 106.309 471.484 106.757 471.729 107.344L472.081 105.584H473.217ZM467.681 113.072C468.374 113.072 468.998 112.907 469.553 112.576C470.108 112.235 470.54 111.765 470.849 111.168C471.169 110.56 471.329 109.883 471.329 109.136C471.329 108.315 471.084 107.675 470.593 107.216C470.113 106.747 469.436 106.512 468.561 106.512C467.868 106.512 467.244 106.683 466.689 107.024C466.134 107.365 465.697 107.84 465.377 108.448C465.068 109.045 464.913 109.717 464.913 110.464C464.913 111.285 465.153 111.925 465.633 112.384C466.124 112.843 466.806 113.072 467.681 113.072ZM483.896 109.76L486.088 114H484.76L482.904 110.224H481.096L480.328 114H479.192L479.944 110.224H478.168L474.84 114H473.416L477.336 109.632L475.368 105.584H476.568L478.312 109.296H480.136L480.872 105.584H482.024L481.272 109.296H483.064L486.296 105.584H487.576L483.896 109.76ZM495.099 113.008H496.411L495.819 116.032H494.747L495.147 114H487.611L487.211 116.032H486.139L486.731 113.008H487.163C487.728 112.976 488.203 112.549 488.587 111.728C488.971 110.907 489.344 109.781 489.707 108.352L490.379 105.584H496.571L495.099 113.008ZM490.731 108.512C490.421 109.739 490.123 110.72 489.835 111.456C489.547 112.192 489.189 112.709 488.763 113.008H493.963L495.243 106.592H491.195L490.731 108.512ZM502.257 114.08C501.489 114.08 500.817 113.936 500.241 113.648C499.665 113.349 499.217 112.933 498.897 112.4C498.587 111.856 498.433 111.227 498.433 110.512C498.433 109.563 498.641 108.709 499.057 107.952C499.473 107.195 500.049 106.603 500.785 106.176C501.531 105.739 502.369 105.52 503.297 105.52C504.47 105.52 505.398 105.84 506.081 106.48C506.774 107.12 507.121 107.984 507.121 109.072C507.121 110.021 506.913 110.88 506.497 111.648C506.081 112.405 505.499 113.003 504.753 113.44C504.017 113.867 503.185 114.08 502.257 114.08ZM502.337 113.072C503.03 113.072 503.654 112.907 504.209 112.576C504.763 112.235 505.195 111.765 505.505 111.168C505.825 110.56 505.985 109.883 505.985 109.136C505.985 108.315 505.739 107.675 505.249 107.216C504.769 106.747 504.091 106.512 503.217 106.512C502.523 106.512 501.899 106.683 501.345 107.024C500.79 107.365 500.353 107.84 500.033 108.448C499.723 109.045 499.569 109.717 499.569 110.464C499.569 111.285 499.809 111.925 500.289 112.384C500.779 112.843 501.462 113.072 502.337 113.072ZM519.786 105.584L518.106 114H517.066L518.394 107.344L513.866 112.976H513.354L511.082 107.28L509.738 114H508.698L510.378 105.584H511.514L513.866 111.648L518.714 105.584H519.786ZM530.107 105.584L523.963 115.088C523.451 115.877 522.971 116.421 522.523 116.72C522.075 117.029 521.541 117.184 520.923 117.184C520.517 117.184 520.133 117.115 519.771 116.976C519.408 116.848 519.125 116.667 518.923 116.432L519.531 115.6C519.915 116.005 520.411 116.208 521.019 116.208C521.392 116.208 521.728 116.107 522.027 115.904C522.325 115.701 522.635 115.349 522.955 114.848L523.547 113.952L521.451 105.584H522.603L524.347 112.752L528.939 105.584H530.107Z" fill="#333333"/>
</svg>
